<svg height="512" viewBox="0 0 448 512" width="448" xmlns="http://www.w3.org/2000/svg"><path d="m48 32c-26.5 0-48 21.5-48 48v352c0 26.5 21.5 48 48 48h352c26.5 0 48-21.5 48-48v-352c0-26.5-21.5-48-48-48zm176 64c88.36522 0 160 71.63482 160 160 0 88.36519-71.63478 160-160 160-88.36517 0-160-71.63481-160-160 0-88.36518 71.63483-160 160-160zm-67.58594 60.93359v63.54883c-3.39354-3.5215-9.12476-7.13786-12.32617-8.67383-5.56938-2.68772-13.38742-3.25586-19.72461-3.25586-10.88391 0-21.13888 5.79059-29.525389 13.02539-10.563804 9.09052-15.845703 21.25479-15.845703 36.49219 0 14.98146 4.842524 28.87823 15.15039 37.96875 8.642452 7.61724 18.502082 11.11914 29.578122 11.11914 6.85089 0 14.15206-1.96058 19.5293-4.96875 3.07197-1.72776 10.15284-5.57802 13.16211-9.35547v12.0625h29.63672v-147.96289zm168.65625.61133c-4.92919 0-9.12273 1.72821-12.58008 5.18555-3.39316 3.39354-5.09184 7.5552-5.08984 12.48437 0 4.92916 1.69668 9.12276 5.08984 12.58008 3.45591 3.45735 7.64945 5.18555 12.58008 5.18555 4.99332 0 9.18688-1.69665 12.58008-5.08985 3.45734-3.45734 5.18359-7.68246 5.18359-12.67578 0-4.92955-1.72625-9.09118-5.18359-12.48437-3.45735-3.45734-7.65091-5.18555-12.58008-5.18555zm-78.02343 49.72461c-18.30939 0-32.42711 5.70832-42.34961 17.12305-8.19475 9.45587-12.29297 20.29627-12.29297 32.52148 0 13.576 4.06779 25.02244 12.19726 34.34375 9.86126 11.34657 23.68882 17.02149 41.48633 17.02149 17.73276 0 31.53004-5.67369 41.38867-17.01953 8.12991-9.32108 12.19731-20.49965 12.19532-33.53516 0-12.90151-4.09627-24.01069-12.29102-33.33203-10.05231-11.41582-23.49678-17.12305-40.33398-17.12305zm62.27343 3.4668v94.08594h31.49805v-94.08594zm-175.90625 23.65429c5.63318.00001 12.84914 3.52151 16.81836 7.49219 3.96921 3.90543 5.51563 10.65004 5.51563 16.28321 0 5.69735-3.30227 12.25474-7.27149 16.16015-3.90396 3.90541-10.6801 6.29688-16.3789 6.29688-6.33865 0-10.61477-3.24503-14.58399-7.98243-3.26521-3.84126-5.11719-9.32473-5.11719-14.2539 0-4.93063 1.63323-10.85211 4.89844-14.69336 4.03338-4.7374 9.84429-9.30078 16.11914-9.30078zm112.67383 1.54883c5.76115 0 10.65946 2.13203 14.69141 6.38672 4.09716 4.18797 6.14648 9.31973 6.14648 15.39844 0 6.14688-2.01595 11.34346-6.05078 15.59961-4.03303 4.18795-8.96034 6.28516-14.78711 6.28516-6.52933 0-11.84423-2.56785-15.94141-7.70118-3.32792-4.12016-4.99414-8.84754-4.99414-14.18359 0-5.26824 1.66622-9.9638 4.99414-14.08399 4.09755-5.13332 9.41208-7.70117 15.94141-7.70117z"/></svg>