<?xml version="1.0" encoding="utf-8"?>
<!-- Generator: Adobe Illustrator 25.0.1, SVG Export Plug-In . SVG Version: 6.00 Build 0)  -->
<svg version="1.0" id="katman_1" xmlns="http://www.w3.org/2000/svg" xmlns:xlink="http://www.w3.org/1999/xlink" x="0px" y="0px"
	 viewBox="0 0 800 600" style="enable-background:new 0 0 800 600;" xml:space="preserve">
<style type="text/css">
	.st0{fill:url(#SVGID_1_);}
	.st1{fill:url(#SVGID_2_);}
	.st2{fill:url(#SVGID_3_);}
	.st3{fill:url(#SVGID_4_);}
	.st4{fill:url(#SVGID_5_);}
	.st5{fill:url(#SVGID_6_);}
	.st6{fill:#0082FB;}
	.st7{fill:url(#SVGID_7_);}
	.st8{fill:url(#SVGID_8_);}
	.st9{fill:url(#SVGID_9_);}
	.st10{fill:url(#SVGID_10_);}
	.st11{fill:url(#SVGID_11_);}
	.st12{fill:url(#SVGID_12_);}
	.st13{fill:url(#SVGID_13_);}
</style>
<linearGradient id="SVGID_1_" gradientUnits="userSpaceOnUse" x1="457.6366" y1="298.5236" x2="322.1726" y2="476.3058" gradientTransform="matrix(1 0 0 -1 -20.96 604.34)">
	<stop  offset="6.000000e-04" style="stop-color:#0867DF"/>
	<stop  offset="0.4539" style="stop-color:#0668E1"/>
	<stop  offset="0.8591" style="stop-color:#0064E0"/>
</linearGradient>
<path class="st0" d="M269.3,100c-0.2,0-0.4,0-0.6,0l-0.8,65.7c0.2,0,0.4,0,0.5,0c43.3,0,76.9,34.1,150,156.9l4.5,7.5l0.3,0.5
	l40.9-61.2l-0.3-0.5c-9.6-15.6-18.9-30-27.7-43.1c-10.3-15.2-20.1-28.8-29.7-40.9C358.1,123.4,317.6,100,269.3,100z"/>
<linearGradient id="SVGID_2_" gradientUnits="userSpaceOnUse" x1="193.6527" y1="413.6161" x2="286.5989" y2="484.2899" gradientTransform="matrix(1 0 0 -1 -20.96 604.34)">
	<stop  offset="0.1323" style="stop-color:#0064DF"/>
	<stop  offset="0.9988" style="stop-color:#0064E0"/>
</linearGradient>
<path class="st1" d="M268.7,100c-48.6,0.2-91.5,31.6-122.6,79.6c-0.1,0.1-0.2,0.3-0.3,0.4l56.9,30.9c0.1-0.1,0.2-0.3,0.3-0.4
	c18.1-27.2,40.7-44.6,64.8-44.9c0.2,0,0.4,0,0.5,0l0.8-65.7C269.1,100,268.9,100,268.7,100z"/>
<linearGradient id="SVGID_3_" gradientUnits="userSpaceOnUse" x1="154.1721" y1="310.1861" x2="191.3986" y2="404.0424" gradientTransform="matrix(1 0 0 -1 -20.96 604.34)">
	<stop  offset="1.470000e-02" style="stop-color:#0072EC"/>
	<stop  offset="0.6881" style="stop-color:#0064DF"/>
</linearGradient>
<path class="st2" d="M146.2,179.6c-0.1,0.1-0.2,0.3-0.3,0.4c-20.4,31.7-35.6,70.5-43.8,112.5c0,0.2-0.1,0.4-0.1,0.5l64,15.1
	c0-0.2,0.1-0.4,0.1-0.5c6.8-36.9,19.9-71,36.8-96.6c0.1-0.1,0.2-0.3,0.3-0.4L146.2,179.6z"/>
<linearGradient id="SVGID_4_" gradientUnits="userSpaceOnUse" x1="149.0855" y1="242.4217" x2="153.3911" y2="299.719" gradientTransform="matrix(1 0 0 -1 -20.96 604.34)">
	<stop  offset="7.310000e-02" style="stop-color:#007CF6"/>
	<stop  offset="0.9943" style="stop-color:#0072EC"/>
</linearGradient>
<path class="st3" d="M166.1,307.6l-64-15.1c0,0.2-0.1,0.4-0.1,0.5c-4.5,23.1-6.8,46.5-6.8,70c0,0.2,0,0.4,0,0.6l65.6,5.9
	c0-0.2,0-0.4,0-0.6c0-1.4,0-2.7,0-4.1c0-19,1.8-38,5.2-56.6C166,307.9,166,307.8,166.1,307.6z"/>
<linearGradient id="SVGID_5_" gradientUnits="userSpaceOnUse" x1="151.4566" y1="211.3002" x2="148.3767" y2="234.2573" gradientTransform="matrix(1 0 0 -1 -20.96 604.34)">
	<stop  offset="7.310000e-02" style="stop-color:#007FF9"/>
	<stop  offset="1" style="stop-color:#007CF6"/>
</linearGradient>
<path class="st4" d="M162.8,389.9c-1.2-6.8-1.8-13.6-2-20.4c0-0.2,0-0.4,0-0.6L95.2,363c0,0.2,0,0.4,0,0.6v0
	c-0.1,13.7,1.1,27.4,3.6,41c0,0.2,0.1,0.4,0.1,0.5l64-14.7C162.8,390.3,162.8,390.1,162.8,389.9z"/>
<linearGradient id="SVGID_6_" gradientUnits="userSpaceOnUse" x1="149.6586" y1="205.2807" x2="168.8626" y2="164.485" gradientTransform="matrix(1 0 0 -1 -20.96 604.34)">
	<stop  offset="7.310000e-02" style="stop-color:#007FF9"/>
	<stop  offset="1" style="stop-color:#0082FB"/>
</linearGradient>
<path class="st5" d="M177.7,423.8c-7.1-7.8-12.2-19-14.8-33.4c0-0.2-0.1-0.4-0.1-0.5l-64,14.7c0,0.2,0.1,0.4,0.1,0.5
	c4.8,25.4,14.3,46.5,27.9,62.5c0.1,0.1,0.2,0.3,0.4,0.4l50.9-43.8C178,424.1,177.9,423.9,177.7,423.8z"/>
<path class="st6" d="M367.3,242c-38.6,59.1-61.9,96.1-61.9,96.1c-51.4,80.4-69.1,98.4-97.7,98.4c-11.9,0-21.9-4.2-29.5-12.4
	c-0.1-0.1-0.3-0.3-0.4-0.4l-50.9,43.8c0.1,0.1,0.2,0.3,0.4,0.4c18.8,21.8,45.2,33.9,78,33.9c49.6,0,85.2-23.3,148.6-133.9
	c0,0,26.4-46.6,44.6-78.7C387,271.3,376.8,255.6,367.3,242z"/>
<linearGradient id="SVGID_7_" gradientUnits="userSpaceOnUse" x1="445.5872" y1="402.5306" x2="470.9885" y2="437.717" gradientTransform="matrix(1 0 0 -1 -20.96 604.34)">
	<stop  offset="0.2799" style="stop-color:#007FF8"/>
	<stop  offset="0.9141" style="stop-color:#0082FB"/>
</linearGradient>
<path class="st7" d="M436.1,148.8c-0.1,0.1-0.3,0.3-0.4,0.4c-10.4,11.3-20.2,23.2-29.3,35.6c9.5,12.1,19.4,25.7,29.7,41
	c12.1-18.7,23.4-33.8,34.5-45.4c0.1-0.1,0.3-0.3,0.4-0.4L436.1,148.8z"/>
<path class="st6" d="M623.3,143c-26.9-27.1-59-43-93.2-43c-36.1,0-66.6,19.8-94,48.8c-0.1,0.1-0.3,0.3-0.4,0.4l34.9,31.1
	c0.1-0.1,0.3-0.3,0.4-0.4c18.1-18.8,35.6-28.1,54.9-28.1h0c20.9,0,40.4,9.8,57.3,27c0.1,0.1,0.3,0.3,0.4,0.4l40.1-35.8
	C623.6,143.3,623.4,143.2,623.3,143z"/>
<linearGradient id="SVGID_8_" gradientUnits="userSpaceOnUse" x1="639.1345" y1="448.1185" x2="692.2267" y2="252.5021" gradientTransform="matrix(1 0 0 -1 -20.96 604.34)">
	<stop  offset="0" style="stop-color:#0082FB"/>
	<stop  offset="0.9995" style="stop-color:#0081FA"/>
</linearGradient>
<path class="st8" d="M701,354.4c-1.5-87.1-32-165-77.4-211c-0.1-0.1-0.3-0.3-0.4-0.4l-40.1,35.8c0.1,0.1,0.3,0.3,0.4,0.4
	c34.1,35,57.5,100,59.6,175.2c0,0.2,0,0.4,0,0.6l57.9,0C701.1,354.8,701,354.6,701,354.4z"/>
<linearGradient id="SVGID_9_" gradientUnits="userSpaceOnUse" x1="705.1343" y1="245.0739" x2="671.5222" y2="177.0387" gradientTransform="matrix(1 0 0 -1 -20.96 604.34)">
	<stop  offset="6.190000e-02" style="stop-color:#0081FA"/>
	<stop  offset="1" style="stop-color:#0080F9"/>
</linearGradient>
<path class="st9" d="M701.1,355c0-0.2,0-0.4,0-0.6l-57.9,0c0,0.2,0,0.4,0,0.6c0.1,3.5,0.1,7.1,0.1,10.6c0,20.5-3.1,37.1-9.3,49
	c-0.1,0.2-0.2,0.4-0.3,0.5l43.1,44.8c0.1-0.2,0.2-0.3,0.3-0.5c15.7-24.1,23.9-57.6,23.9-98.3C701.1,359.1,701.1,357,701.1,355z"/>
<linearGradient id="SVGID_10_" gradientUnits="userSpaceOnUse" x1="644.7174" y1="140.9904" x2="676.1873" y2="162.4581" gradientTransform="matrix(1 0 0 -1 -20.96 604.34)">
	<stop  offset="0" style="stop-color:#027AF3"/>
	<stop  offset="1" style="stop-color:#0080F9"/>
</linearGradient>
<path class="st10" d="M634,414.6c-0.1,0.2-0.2,0.4-0.3,0.5c-5.4,10.1-13.1,16.8-23.2,19.7l19.7,61.9c2.6-0.9,5.1-1.9,7.6-3
	c0.7-0.3,1.5-0.7,2.2-1c0.4-0.2,0.8-0.4,1.2-0.6c13.1-6.6,24.4-16.3,32.9-28.3c0.5-0.8,1.1-1.5,1.6-2.3c0.4-0.5,0.7-1.1,1.1-1.6
	c0.1-0.2,0.2-0.3,0.3-0.5L634,414.6z"/>
<linearGradient id="SVGID_11_" gradientUnits="userSpaceOnUse" x1="595.2993" y1="136.8189" x2="639.0746" y2="136.8189" gradientTransform="matrix(1 0 0 -1 -20.96 604.34)">
	<stop  offset="0" style="stop-color:#0377EF"/>
	<stop  offset="0.9994" style="stop-color:#0279F1"/>
</linearGradient>
<path class="st11" d="M598.1,436.6c-6.2,0.1-12.4-1.1-18.1-3.5l-20.1,63.4c11.3,3.9,23.4,5.6,36.9,5.6c11.6,0.1,23.1-1.7,34.1-5.4
	l-19.7-61.9C606.9,436,602.5,436.6,598.1,436.6z"/>
<linearGradient id="SVGID_12_" gradientUnits="userSpaceOnUse" x1="557.2532" y1="160.91" x2="588.6982" y2="142.3814" gradientTransform="matrix(1 0 0 -1 -20.96 604.34)">
	<stop  offset="1.900000e-03" style="stop-color:#0471E9"/>
	<stop  offset="1" style="stop-color:#0377EF"/>
</linearGradient>
<path class="st12" d="M557.8,414.9c-0.1-0.1-0.2-0.3-0.4-0.4l-46.3,48.1c0.1,0.1,0.3,0.3,0.4,0.4c16.1,17.1,31.5,27.8,48.9,33.6
	l20.1-63.3C573.2,430.1,566,424.4,557.8,414.9z"/>
<linearGradient id="SVGID_13_" gradientUnits="userSpaceOnUse" x1="461.3216" y1="297.2632" x2="561.9408" y2="170.5571" gradientTransform="matrix(1 0 0 -1 -20.96 604.34)">
	<stop  offset="0.2765" style="stop-color:#0867DF"/>
	<stop  offset="1" style="stop-color:#0471E9"/>
</linearGradient>
<path class="st13" d="M557.4,414.5c-13.9-16.1-31.1-43-58.1-86.4L464,269.3l-0.3-0.5l-40.9,61.2l0.3,0.5l25,41.9
	c24.2,40.4,43.9,69.7,63,90.1c0.1,0.1,0.3,0.3,0.4,0.4l46.3-48.1C557.7,414.8,557.5,414.6,557.4,414.5z"/>
</svg>