<svg xmlns="http://www.w3.org/2000/svg" xmlns:xlink="http://www.w3.org/1999/xlink" xmlns:lucid="lucid" width="2498.65" height="842"><g transform="translate(-1202.3456178314034 -739)" lucid:page-tab-id="0_0"><path d="M1000 500h3000v1500H1000z" fill="#fff"/><path d="M1443.32 766a6 6 0 0 1 6-6h299.15a6 6 0 0 1 6 6v52.92a6 6 0 0 1-6 6h-299.15a6 6 0 0 1-6-6z" stroke="#282c33" stroke-width="2" fill="#f7f4e4"/><use xlink:href="#a" transform="matrix(1,0,0,1,1455.3179777757814,772) translate(94.48148148148148 26.458333333333332)"/><path d="M1245.35 876.66a6 6 0 0 1 6-6h299.15a6 6 0 0 1 6 6v52.92a6 6 0 0 1-6 6h-299.15a6 6 0 0 1-6-6z" stroke="#282c33" stroke-width="2" fill="#e3fae3"/><use xlink:href="#b" transform="matrix(1,0,0,1,1257.3455678314067,882.6605969231671) translate(36 26.458333333333332)"/><use xlink:href="#c" transform="matrix(1,0,0,1,1257.3455678314067,882.6605969231671) translate(172.07407407407408 26.458333333333332)"/><path d="M1643.5 876.66a6 6 0 0 1 6-6h299.15a6 6 0 0 1 6 6v52.92a6 6 0 0 1-6 6H1649.5a6 6 0 0 1-6-6z" stroke="#282c33" stroke-width="2" fill="#e3fae3"/><use xlink:href="#d" transform="matrix(1,0,0,1,1655.5022587372305,882.6605969231671) translate(70.62962962962965 26.458333333333332)"/><use xlink:href="#e" transform="matrix(1,0,0,1,1655.5022587372305,882.6605969231671) translate(157.2962962962963 26.458333333333332)"/><path d="M1245.35 986.66a6 6 0 0 1 6-6h308.14a6 6 0 0 1 6 6v38.75a6 6 0 0 1-6 6h-308.15a6 6 0 0 1-6-6z" stroke="#282c33" stroke-width="2" fill="#edf5ff"/><use xlink:href="#f" transform="matrix(1,0,0,1,1257.3455678314067,992.6595722880103) translate(42.83333333333334 21.333333333333332)"/><path d="M1245.35 1161.13a6 6 0 0 1 6-6h308.14a6 6 0 0 1 6 6v38.76a6 6 0 0 1-6 6h-308.15a6 6 0 0 1-6-6z" stroke="#282c33" stroke-width="2" fill="#edf5ff"/><use xlink:href="#g" transform="matrix(1,0,0,1,1257.3455678314067,1167.1344467702036) translate(-5.240740740740762 21.333333333333332)"/><path d="M1356.88 1075.14a6 6 0 0 1 6-6h85.08a6 6 0 0 1 6 6v33.68a6 6 0 0 1-6 6h-85.08a6 6 0 0 1-6-6z" stroke="#282c33" stroke-width="2" fill="#fff"/><use xlink:href="#h" transform="matrix(1,0,0,1,1368.8820321941148,1081.143551385453) translate(10.487654320987659 17.777777777777775)"/><path d="M1468.42 1075.14a6 6 0 0 1 6-6h85.07a6 6 0 0 1 6 6v33.68a6 6 0 0 1-6 6h-85.08a6 6 0 0 1-6-6z" stroke="#282c33" stroke-width="2" fill="#fff"/><use xlink:href="#i" transform="matrix(1,0,0,1,1480.4184965568231,1081.143551385453) translate(9.68518518518519 17.777777777777775)"/><path d="M1245.35 1075.14a6 6 0 0 1 6-6h85.07a6 6 0 0 1 6 6v33.68a6 6 0 0 1-6 6h-85.07a6 6 0 0 1-6-6z" stroke="#282c33" stroke-width="2" fill="#fff"/><use xlink:href="#j" transform="matrix(1,0,0,1,1257.345567831406,1081.143551385453) translate(10.487654320987659 17.777777777777775)"/><path d="M1405.42 1207.4v12.64a6 6 0 0 1-6 6h-73.97a2.77 2.77 0 0 0-2.78 2.78" stroke="#3a414a" fill="none"/><path d="M1405.9 1207.4h-.96v-.5h.95z" stroke="#3a414a" stroke-width=".05" fill="#3a414a"/><path d="M1322.67 1243.58l-4.63-14.26h9.27z" stroke="#3a414a" fill="#3a414a"/><path d="M1245.35 1252.2a6 6 0 0 1 6-6H1394a6 6 0 0 1 6 6v33.68a6 6 0 0 1-6 6h-142.65a6 6 0 0 1-6-6z" stroke="#282c33" stroke-width="2" fill="#fff"/><use xlink:href="#k" transform="matrix(1,0,0,1,1257.3455678314067,1258.2005064625203) translate(3.2777777777777786 17.777777777777775)"/><path d="M1410.84 1252.2a6 6 0 0 1 6-6h142.65a6 6 0 0 1 6 6v33.68a6 6 0 0 1-6 6h-142.66a6 6 0 0 1-6-6z" stroke="#282c33" stroke-width="2" fill="#fff"/><use xlink:href="#l" transform="matrix(1,0,0,1,1422.8383705479375,1258.2005064625203) translate(-2.9259259259259096 17.777777777777775)"/><path d="M1643.5 984.08a6 6 0 0 1 6-6h299.15a6 6 0 0 1 6 6v38.75a6 6 0 0 1-6 6H1649.5a6 6 0 0 1-6-6z" stroke="#282c33" stroke-width="2" fill="#edf5ff"/><use xlink:href="#m" transform="matrix(1,0,0,1,1655.5022587372305,990.0774916931364) translate(81.8888888888889 21.333333333333332)"/><use xlink:href="#n" transform="matrix(1,0,0,1,1655.5022587372305,990.0774916931364) translate(123.2962962962963 21.333333333333332)"/><path d="M1643.5 1161.13a6 6 0 0 1 6-6h299.15a6 6 0 0 1 6 6v38.76a6 6 0 0 1-6 6H1649.5a6 6 0 0 1-6-6z" stroke="#282c33" stroke-width="2" fill="#edf5ff"/><use xlink:href="#o" transform="matrix(1,0,0,1,1655.5022587372305,1167.1344467702036) translate(103.07407407407408 21.333333333333332)"/><path d="M1643.5 1072.6a6 6 0 0 1 6-6h299.15a6 6 0 0 1 6 6v38.76a6 6 0 0 1-6 6H1649.5a6 6 0 0 1-6-6z" stroke="#282c33" stroke-width="2" fill="#edf5ff"/><use xlink:href="#p" transform="matrix(1,0,0,1,1655.5022587372305,1078.60596923167) translate(75.22222222222223 21.333333333333332)"/><use xlink:href="#q" transform="matrix(1,0,0,1,1655.5022587372305,1078.60596923167) translate(109.22222222222223 21.333333333333332)"/><path d="M1643.5 1249.66a6 6 0 0 1 6-6h299.15a6 6 0 0 1 6 6v38.75a6 6 0 0 1-6 6H1649.5a6 6 0 0 1-6-6z" stroke="#282c33" stroke-width="2" fill="#edf5ff"/><use xlink:href="#r" transform="matrix(1,0,0,1,1655.5022587372305,1255.6629243087373) translate(64.96296296296296 21.333333333333332)"/><use xlink:href="#s" transform="matrix(1,0,0,1,1655.5022587372305,1255.6629243087373) translate(171.4074074074074 21.333333333333332)"/><path d="M1643.5 1338.2a6 6 0 0 1 6-6h299.15a6 6 0 0 1 6 6v38.74a6 6 0 0 1-6 6H1649.5a6 6 0 0 1-6-6z" stroke="#282c33" stroke-width="2" fill="#edf5ff"/><use xlink:href="#t" transform="matrix(1,0,0,1,1655.5022587372305,1344.191401847271) translate(0.7037037037037521 21.333333333333325)"/><use xlink:href="#u" transform="matrix(1,0,0,1,1655.5022587372305,1344.191401847271) translate(113.14814814814815 21.333333333333325)"/><path d="M1405.42 1032.9v11.38a6 6 0 0 0 6 6h104.05a1.48 1.48 0 0 1 1.5 1.48" stroke="#3a414a" fill="none"/><path d="M1405.9 1032.92h-.96v-.5h.95z" stroke="#3a414a" stroke-width=".05" fill="#3a414a"/><path d="M1516.96 1066.53l-4.64-14.27h9.27z" stroke="#3a414a" fill="#3a414a"/><path d="M1243.85 903.12h-33.5a6 6 0 0 0-6 6v90.9a6 6 0 0 0 6 6h17.6" stroke="#3a414a" fill="none"/><path d="M1244.35 903.6h-.52v-.95h.52z" stroke="#3a414a" stroke-width=".05" fill="#3a414a"/><path d="M1242.73 1006.03l-14.27 4.64v-9.27z" stroke="#3a414a" fill="#3a414a"/><path d="M1243.85 903.12h-33.5a6 6 0 0 0-6 6v265.4a6 6 0 0 0 6 6h17.6" stroke="#3a414a" fill="none"/><path d="M1244.35 903.6h-.52v-.95h.52z" stroke="#3a414a" stroke-width=".05" fill="#3a414a"/><path d="M1242.73 1180.5l-14.27 4.65v-9.28z" stroke="#3a414a" fill="#3a414a"/><path d="M1405.42 1207.4v12.64a6 6 0 0 0 6 6h73.97a2.77 2.77 0 0 1 2.77 2.78" stroke="#3a414a" fill="none"/><path d="M1405.9 1207.4h-.96v-.5h.95z" stroke="#3a414a" stroke-width=".05" fill="#3a414a"/><path d="M1488.17 1243.58l-4.64-14.26h9.27z" stroke="#3a414a" fill="#3a414a"/><path d="M1405.42 1032.9v18.86" stroke="#3a414a" fill="none"/><path d="M1405.9 1032.92h-.96v-.5h.95z" stroke="#3a414a" stroke-width=".05" fill="#3a414a"/><path d="M1405.42 1066.53l-4.64-14.27h9.27z" stroke="#3a414a" fill="#3a414a"/><path d="M1642 903.12h-33.5a6 6 0 0 0-6 6v88.33a6 6 0 0 0 6 6h17.62" stroke="#3a414a" fill="none"/><path d="M1642.5 903.6h-.5v-.95h.5z" stroke="#3a414a" stroke-width=".05" fill="#3a414a"/><path d="M1640.88 1003.45l-14.26 4.64v-9.28z" stroke="#3a414a" fill="#3a414a"/><path d="M1642 903.12h-33.5a6 6 0 0 0-6 6v176.86a6 6 0 0 0 6 6h17.62" stroke="#3a414a" fill="none"/><path d="M1642.5 903.6h-.5v-.95h.5z" stroke="#3a414a" stroke-width=".05" fill="#3a414a"/><path d="M1640.88 1091.98l-14.26 4.64v-9.27z" stroke="#3a414a" fill="#3a414a"/><path d="M1642 903.12h-33.5a6 6 0 0 0-6 6v265.4a6 6 0 0 0 6 6h17.62" stroke="#3a414a" fill="none"/><path d="M1642.5 903.6h-.5v-.95h.5z" stroke="#3a414a" stroke-width=".05" fill="#3a414a"/><path d="M1640.88 1180.5l-14.26 4.65v-9.28z" stroke="#3a414a" fill="#3a414a"/><path d="M1642 903.12h-33.5a6 6 0 0 0-6 6v353.92a6 6 0 0 0 6 6h17.62" stroke="#3a414a" fill="none"/><path d="M1642.5 903.6h-.5v-.95h.5z" stroke="#3a414a" stroke-width=".05" fill="#3a414a"/><path d="M1640.88 1269.04l-14.26 4.63v-9.27z" stroke="#3a414a" fill="#3a414a"/><path d="M1642 903.12h-33.5a6 6 0 0 0-6 6v442.45a6 6 0 0 0 6 6h17.62" stroke="#3a414a" fill="none"/><path d="M1642.5 903.6h-.5v-.95h.5z" stroke="#3a414a" stroke-width=".05" fill="#3a414a"/><path d="M1640.88 1357.57l-14.26 4.63v-9.27z" stroke="#3a414a" fill="#3a414a"/><path d="M1441.82 792.46h-34.9a6 6 0 0 0-6 6v54.82" stroke="#3a414a" fill="none"/><path d="M1442.32 792.93h-.5V792h.5z" stroke="#3a414a" stroke-width=".05" fill="#3a414a"/><path d="M1400.92 868.04l-4.63-14.26h9.26z" stroke="#3a414a" fill="#3a414a"/><path d="M1755.97 792.46h37.1a6 6 0 0 1 6 6v54.82" stroke="#3a414a" fill="none"/><path d="M1755.98 792.93h-.5V792h.5z" stroke="#3a414a" stroke-width=".05" fill="#3a414a"/><path d="M1799.08 868.04l-4.64-14.26h9.27z" stroke="#3a414a" fill="#3a414a"/><path d="M2704.15 766a6 6 0 0 1 6-6h299.15a6 6 0 0 1 6 6v52.92a6 6 0 0 1-6 6h-299.15a6 6 0 0 1-6-6z" stroke="#282c33" stroke-width="2" fill="#f7f4e4"/><use xlink:href="#v" transform="matrix(1,0,0,1,2716.1474989775697,772) translate(111.48148148148148 26.458333333333332)"/><path d="M2063.78 876.66a6 6 0 0 1 6-6h299.15a6 6 0 0 1 6 6v52.92a6 6 0 0 1-6 6h-299.15a6 6 0 0 1-6-6z" stroke="#282c33" stroke-width="2" fill="#e3fae3"/><use xlink:href="#w" transform="matrix(1,0,0,1,2075.778765804497,882.6605969231671) translate(81.22222222222223 26.458333333333332)"/><path d="M2063.78 984.08a6 6 0 0 1 6-6h299.15a6 6 0 0 1 6 6v38.75a6 6 0 0 1-6 6h-299.15a6 6 0 0 1-6-6z" stroke="#282c33" stroke-width="2" fill="#edf5ff"/><use xlink:href="#x" transform="matrix(1,0,0,1,2075.778765804497,990.0774916931364) translate(90.85185185185185 21.333333333333332)"/><path d="M2063.78 1161.13a6 6 0 0 1 6-6h299.15a6 6 0 0 1 6 6v38.76a6 6 0 0 1-6 6h-299.15a6 6 0 0 1-6-6z" stroke="#282c33" stroke-width="2" fill="#edf5ff"/><use xlink:href="#y" transform="matrix(1,0,0,1,2075.778765804497,1167.1344467702036) translate(68.62962962962965 21.333333333333332)"/><path d="M2226.95 1075.14a6 6 0 0 1 6-6h135.98a6 6 0 0 1 6 6v33.68a6 6 0 0 1-6 6h-135.98a6 6 0 0 1-6-6z" stroke="#282c33" stroke-width="2" fill="#fff"/><use xlink:href="#z" transform="matrix(1,0,0,1,2238.9498569279517,1081.143551385453) translate(8.327160493827172 17.777777777777775)"/><use xlink:href="#A" transform="matrix(1,0,0,1,2238.9498569279517,1081.143551385453) translate(67.52469135802468 17.777777777777775)"/><path d="M2219.36 1030.33V1043a6 6 0 0 1-6 6h-72.82a2.77 2.77 0 0 0-2.77 2.76" stroke="#3a414a" fill="none"/><path d="M2219.83 1030.34h-.95v-.5h.95z" stroke="#3a414a" stroke-width=".05" fill="#3a414a"/><path d="M2137.77 1066.53l-4.64-14.27h9.28z" stroke="#3a414a" fill="#3a414a"/><path d="M2063.78 1075.14a6 6 0 0 1 6-6h135.98a6 6 0 0 1 6 6v33.68a6 6 0 0 1-6 6h-135.98a6 6 0 0 1-6-6z" stroke="#282c33" stroke-width="2" fill="#fff"/><use xlink:href="#B" transform="matrix(1,0,0,1,2075.7787658044977,1081.143551385453) translate(17.000000000000014 17.777777777777775)"/><use xlink:href="#C" transform="matrix(1,0,0,1,2075.7787658044977,1081.143551385453) translate(76.19753086419753 17.777777777777775)"/><path d="M2062.28 903.12h-33.5a6 6 0 0 0-6 6v88.33a6 6 0 0 0 6 6h17.62" stroke="#3a414a" fill="none"/><path d="M2062.78 903.6h-.5v-.95h.5z" stroke="#3a414a" stroke-width=".05" fill="#3a414a"/><path d="M2061.16 1003.45l-14.26 4.64v-9.28z" stroke="#3a414a" fill="#3a414a"/><path d="M2062.28 903.12h-33.5a6 6 0 0 0-6 6v265.4a6 6 0 0 0 6 6h17.62" stroke="#3a414a" fill="none"/><path d="M2062.78 903.6h-.5v-.95h.5z" stroke="#3a414a" stroke-width=".05" fill="#3a414a"/><path d="M2061.16 1180.5l-14.26 4.65v-9.28z" stroke="#3a414a" fill="#3a414a"/><path d="M2219.36 1030.33V1043a6 6 0 0 0 6 6h72.8a2.77 2.77 0 0 1 2.78 2.76" stroke="#3a414a" fill="none"/><path d="M2219.83 1030.34h-.95v-.5h.95z" stroke="#3a414a" stroke-width=".05" fill="#3a414a"/><path d="M2300.94 1066.53l-4.64-14.27h9.28z" stroke="#3a414a" fill="#3a414a"/><path d="M2702.65 792.46h-477.3a6 6 0 0 0-6 6v54.82" stroke="#3a414a" fill="none"/><path d="M2703.15 792.93h-.5V792h.5z" stroke="#3a414a" stroke-width=".05" fill="#3a414a"/><path d="M2219.36 868.04l-4.64-14.26h9.27z" stroke="#3a414a" fill="#3a414a"/><path d="M2062.67 1249.66a6 6 0 0 1 6-6h299.15a6 6 0 0 1 6 6v38.75a6 6 0 0 1-6 6h-299.15a6 6 0 0 1-6-6z" stroke="#282c33" stroke-width="2" fill="#edf5ff"/><use xlink:href="#D" transform="matrix(1,0,0,1,2074.672830295959,1255.6629243087373) translate(98.92592592592592 21.333333333333332)"/><path d="M2227.65 1340.73a6 6 0 0 1 6-6h135.28a6 6 0 0 1 6 6v33.67a6 6 0 0 1-6 6h-135.28a6 6 0 0 1-6-6z" stroke="#282c33" stroke-width="2" fill="#fff"/><use xlink:href="#E" transform="matrix(1,0,0,1,2239.651188631968,1346.728984001054) translate(16.444444444444457 17.777777777777775)"/><path d="M2218.25 1295.9v12.67a6 6 0 0 1-6 6h-73.16a2.77 2.77 0 0 0-2.8 2.78" stroke="#3a414a" fill="none"/><path d="M2218.72 1295.93h-.95v-.52h.95z" stroke="#3a414a" stroke-width=".05" fill="#3a414a"/><path d="M2136.3 1332.1l-4.62-14.25h9.27z" stroke="#3a414a" fill="#3a414a"/><path d="M2062.67 1340.73a6 6 0 0 1 6-6h135.28a6 6 0 0 1 6 6v33.67a6 6 0 0 1-6 6h-135.28a6 6 0 0 1-6-6z" stroke="#282c33" stroke-width="2" fill="#fff"/><use xlink:href="#F" transform="matrix(1,0,0,1,2074.672830295959,1346.728984001054) translate(18.20370370370371 17.777777777777775)"/><path d="M2218.25 1295.9v12.67a6 6 0 0 0 6 6h74.27a2.77 2.77 0 0 1 2.77 2.78" stroke="#3a414a" fill="none"/><path d="M2218.72 1295.93h-.95v-.52h.95z" stroke="#3a414a" stroke-width=".05" fill="#3a414a"/><path d="M2301.3 1332.1l-4.64-14.25h9.27z" stroke="#3a414a" fill="#3a414a"/><path d="M2062.67 1515.25a6 6 0 0 1 6-6h299.15a6 6 0 0 1 6 6V1554a6 6 0 0 1-6 6h-299.15a6 6 0 0 1-6-6z" stroke="#282c33" stroke-width="2" fill="#edf5ff"/><use xlink:href="#G" transform="matrix(1,0,0,1,2074.672830295959,1521.2483569243384) translate(80.44444444444446 21.333333333333332)"/><path d="M2063.78 1426.72a6 6 0 0 1 6-6h299.15a6 6 0 0 1 6 6v38.75a6 6 0 0 1-6 6h-299.15a6 6 0 0 1-6-6z" stroke="#282c33" stroke-width="2" fill="#edf5ff"/><use xlink:href="#H" transform="matrix(1,0,0,1,2075.778765804497,1432.7198793858047) translate(5.814814814814838 21.333333333333332)"/><use xlink:href="#I" transform="matrix(1,0,0,1,2075.778765804497,1432.7198793858047) translate(118.25925925925925 21.333333333333332)"/><path d="M2062.28 903.12h-34.6a6 6 0 0 0-6 6v353.92a6 6 0 0 0 6 6h17.6" stroke="#3a414a" fill="none"/><path d="M2062.78 903.6h-.5v-.95h.5z" stroke="#3a414a" stroke-width=".05" fill="#3a414a"/><path d="M2060.05 1269.04l-14.26 4.63v-9.27z" stroke="#3a414a" fill="#3a414a"/><path d="M2062.28 903.12h-33.5a6 6 0 0 0-6 6v530.98a6 6 0 0 0 6 6h17.62" stroke="#3a414a" fill="none"/><path d="M2062.78 903.6h-.5v-.95h.5z" stroke="#3a414a" stroke-width=".05" fill="#3a414a"/><path d="M2061.16 1446.1l-14.26 4.63v-9.27z" stroke="#3a414a" fill="#3a414a"/><path d="M2062.28 903.12h-34.6a6 6 0 0 0-6 6v619.5a6 6 0 0 0 6 6h17.6" stroke="#3a414a" fill="none"/><path d="M2062.78 903.6h-.5v-.95h.5z" stroke="#3a414a" stroke-width=".05" fill="#3a414a"/><path d="M2060.05 1534.62l-14.26 4.64V1530z" stroke="#3a414a" fill="#3a414a"/><path d="M2463.04 876.66a6 6 0 0 1 6-6h299.15a6 6 0 0 1 6 6v52.92a6 6 0 0 1-6 6h-299.16a6 6 0 0 1-6-6z" stroke="#282c33" stroke-width="2" fill="#e3fae3"/><use xlink:href="#J" transform="matrix(1,0,0,1,2475.041392218864,882.6605969231671) translate(82.66666666666669 26.458333333333332)"/><path d="M2463.04 984.08a6 6 0 0 1 6-6h299.15a6 6 0 0 1 6 6v38.75a6 6 0 0 1-6 6h-299.16a6 6 0 0 1-6-6z" stroke="#282c33" stroke-width="2" fill="#edf5ff"/><use xlink:href="#K" transform="matrix(1,0,0,1,2475.041392218864,990.0774916931364) translate(119.5925925925926 21.333333333333332)"/><path d="M2463.04 1161.13a6 6 0 0 1 6-6h299.15a6 6 0 0 1 6 6v38.76a6 6 0 0 1-6 6h-299.16a6 6 0 0 1-6-6z" stroke="#282c33" stroke-width="2" fill="#edf5ff"/><use xlink:href="#L" transform="matrix(1,0,0,1,2475.041392218864,1167.1344467702036) translate(67.40740740740742 21.333333333333332)"/><use xlink:href="#M" transform="matrix(1,0,0,1,2475.041392218864,1167.1344467702036) translate(157.11111111111111 21.333333333333332)"/><path d="M2602.57 1075.14a6 6 0 0 1 6-6h114.55a6 6 0 0 1 6 6v33.68a6 6 0 0 1-6 6h-114.55a6 6 0 0 1-6-6z" stroke="#282c33" stroke-width="2" fill="#fff"/><use xlink:href="#N" transform="matrix(1,0,0,1,2614.573965596911,1081.143551385453) translate(11.46913580246914 17.777777777777775)"/><path d="M2618.62 1030.33V1043a6 6 0 0 1-6 6h-83.53a2.77 2.77 0 0 0-2.8 2.76" stroke="#3a414a" fill="none"/><path d="M2619.1 1030.34h-.96v-.5h.95z" stroke="#3a414a" stroke-width=".05" fill="#3a414a"/><path d="M2526.3 1066.53l-4.62-14.27h9.27z" stroke="#3a414a" fill="#3a414a"/><path d="M2463.04 1075.14a6 6 0 0 1 6-6h114.54a6 6 0 0 1 6 6v33.68a6 6 0 0 1-6 6h-114.54a6 6 0 0 1-6-6z" stroke="#282c33" stroke-width="2" fill="#fff"/><use xlink:href="#O" transform="matrix(1,0,0,1,2475.0413922188627,1081.143551385453) translate(19.092592592592595 17.777777777777775)"/><path d="M2461.54 903.12h-33.5a6 6 0 0 0-6 6v88.33a6 6 0 0 0 6 6h17.62" stroke="#3a414a" fill="none"/><path d="M2462.04 903.6h-.5v-.95h.5z" stroke="#3a414a" stroke-width=".05" fill="#3a414a"/><path d="M2460.42 1003.45l-14.26 4.64v-9.28z" stroke="#3a414a" fill="#3a414a"/><path d="M2461.54 903.12h-33.5a6 6 0 0 0-6 6v265.4a6 6 0 0 0 6 6h17.62" stroke="#3a414a" fill="none"/><path d="M2462.04 903.6h-.5v-.95h.5z" stroke="#3a414a" stroke-width=".05" fill="#3a414a"/><path d="M2460.42 1180.5l-14.26 4.65v-9.28z" stroke="#3a414a" fill="#3a414a"/><path d="M2618.62 1030.33V1043a6 6 0 0 0 6 6h38.45a2.77 2.77 0 0 1 2.77 2.76" stroke="#3a414a" fill="none"/><path d="M2619.1 1030.34h-.96v-.5h.95z" stroke="#3a414a" stroke-width=".05" fill="#3a414a"/><path d="M2665.84 1066.53l-4.63-14.27h9.28z" stroke="#3a414a" fill="#3a414a"/><path d="M2461.93 1249.66a6 6 0 0 1 6-6h299.16a6 6 0 0 1 6 6v38.75a6 6 0 0 1-6 6h-299.16a6 6 0 0 1-6-6z" stroke="#282c33" stroke-width="2" fill="#edf5ff"/><use xlink:href="#P" transform="matrix(1,0,0,1,2473.9354567103255,1255.6629243087373) translate(40.59259259259261 21.333333333333332)"/><use xlink:href="#Q" transform="matrix(1,0,0,1,2473.9354567103255,1255.6629243087373) translate(169.11111111111111 21.333333333333332)"/><path d="M2461.54 903.12h-34.6a6 6 0 0 0-6 6v353.92a6 6 0 0 0 6 6h17.6" stroke="#3a414a" fill="none"/><path d="M2462.04 903.6h-.5v-.95h.5z" stroke="#3a414a" stroke-width=".05" fill="#3a414a"/><path d="M2459.32 1269.04l-14.27 4.63v-9.27z" stroke="#3a414a" fill="#3a414a"/><path d="M2753.46 1075.14a6 6 0 0 1 6-6H2874a6 6 0 0 1 6 6v33.68a6 6 0 0 1-6 6h-114.54a6 6 0 0 1-6-6z" stroke="#282c33" stroke-width="2" fill="#fff"/><use xlink:href="#R" transform="matrix(1,0,0,1,2765.4569454649527,1081.143551385453) translate(1.0061728395061849 17.777777777777775)"/><use xlink:href="#S" transform="matrix(1,0,0,1,2765.4569454649527,1081.143551385453) translate(35.51234567901235 17.777777777777775)"/><path d="M2618.62 1030.33V1043a6 6 0 0 0 6 6h189.34a2.77 2.77 0 0 1 2.77 2.76" stroke="#3a414a" fill="none"/><path d="M2619.1 1030.34h-.96v-.5h.95z" stroke="#3a414a" stroke-width=".05" fill="#3a414a"/><path d="M2816.73 1066.53l-4.64-14.27h9.26z" stroke="#3a414a" fill="#3a414a"/><path d="M2948.57 876.66a6 6 0 0 1 6-6h299.15a6 6 0 0 1 6 6v52.92a6 6 0 0 1-6 6h-299.15a6 6 0 0 1-6-6z" stroke="#282c33" stroke-width="2" fill="#e3fae3"/><use xlink:href="#T" transform="matrix(1,0,0,1,2960.571412261892,882.6605969231671) translate(61.29629629629629 26.458333333333332)"/><path d="M2948.57 1249.66a6 6 0 0 1 6-6h299.15a6 6 0 0 1 6 6v38.75a6 6 0 0 1-6 6h-299.15a6 6 0 0 1-6-6z" stroke="#282c33" stroke-width="2" fill="#edf5ff"/><use xlink:href="#U" transform="matrix(1,0,0,1,2960.571412261892,1255.6629243087373) translate(98.96296296296296 21.333333333333332)"/><path d="M3158.9 1341.1a6 6 0 0 1 6-6h178.76a6 6 0 0 1 6 6v33.67a6 6 0 0 1-6 6H3164.9a6 6 0 0 1-6-6z" stroke="#282c33" stroke-width="2" fill="#fff"/><use xlink:href="#V" transform="matrix(1,0,0,1,3170.907899572624,1347.0978526574645) translate(2.7283950617284205 17.777777777777775)"/><use xlink:href="#W" transform="matrix(1,0,0,1,3170.907899572624,1347.0978526574645) translate(110.01234567901234 17.777777777777775)"/><path d="M3104.15 1295.9v12.86a6 6 0 0 1-6 6h-51.24a2.96 2.96 0 0 0-2.95 2.95" stroke="#3a414a" fill="none"/><path d="M3104.62 1295.93h-.95v-.52h.95z" stroke="#3a414a" stroke-width=".05" fill="#3a414a"/><path d="M3043.95 1332.48l-4.64-14.27h9.28z" stroke="#3a414a" fill="#3a414a"/><path d="M2948.57 1341.1a6 6 0 0 1 6-6h178.76a6 6 0 0 1 6 6v33.67a6 6 0 0 1-6 6h-178.76a6 6 0 0 1-6-6z" stroke="#282c33" stroke-width="2" fill="#fff"/><use xlink:href="#X" transform="matrix(1,0,0,1,2960.57141226189,1347.0978526574645) translate(59.51851851851852 17.777777777777775)"/><path d="M2947.07 903.12h-33.5a6 6 0 0 0-6 6v353.92a6 6 0 0 0 6 6h17.62" stroke="#3a414a" fill="none"/><path d="M2947.57 903.6h-.5v-.95h.5z" stroke="#3a414a" stroke-width=".05" fill="#3a414a"/><path d="M2945.95 1269.04l-14.26 4.63v-9.27z" stroke="#3a414a" fill="#3a414a"/><path d="M3104.15 1295.9v12.86a6 6 0 0 0 6 6h141.18a2.96 2.96 0 0 1 2.96 2.95" stroke="#3a414a" fill="none"/><path d="M3104.62 1295.93h-.95v-.52h.95z" stroke="#3a414a" stroke-width=".05" fill="#3a414a"/><path d="M3254.3 1332.48l-4.65-14.27h9.27z" stroke="#3a414a" fill="#3a414a"/><path d="M3369.24 1340.73a6 6 0 0 1 6-6H3554a6 6 0 0 1 6 6v33.67a6 6 0 0 1-6 6h-178.76a6 6 0 0 1-6-6z" stroke="#282c33" stroke-width="2" fill="#fff"/><use xlink:href="#Y" transform="matrix(1,0,0,1,3381.244386883358,1346.728984001054) translate(42.82098765432099 17.777777777777775)"/><path d="M2948.57 1427.46a6 6 0 0 1 6-6h299.15a6 6 0 0 1 6 6v38.75a6 6 0 0 1-6 6h-299.15a6 6 0 0 1-6-6z" stroke="#282c33" stroke-width="2" fill="#edf5ff"/><use xlink:href="#Z" transform="matrix(1,0,0,1,2960.5714122618947,1433.4576166986255) translate(58.25925925925927 21.333333333333332)"/><use xlink:href="#M" transform="matrix(1,0,0,1,2960.5714122618947,1433.4576166986255) translate(166.25925925925924 21.333333333333332)"/><path d="M3158.9 1518.52a6 6 0 0 1 6-6h178.76a6 6 0 0 1 6 6v33.68a6 6 0 0 1-6 6H3164.9a6 6 0 0 1-6-6z" stroke="#282c33" stroke-width="2" fill="#fff"/><use xlink:href="#aa" transform="matrix(1,0,0,1,3170.907899572624,1524.523676390942) translate(20.62962962962964 17.777777777777775)"/><use xlink:href="#ab" transform="matrix(1,0,0,1,3170.907899572624,1524.523676390942) translate(72.35802469135803 17.777777777777775)"/><path d="M3104.15 1473.7v12.67a6 6 0 0 1-6 6h-51.43a2.77 2.77 0 0 0-2.77 2.77" stroke="#3a414a" fill="none"/><path d="M3104.62 1473.72h-.95v-.5h.95z" stroke="#3a414a" stroke-width=".05" fill="#3a414a"/><path d="M3043.95 1509.9l-4.64-14.26h9.28z" stroke="#3a414a" fill="#3a414a"/><path d="M2948.57 1518.52a6 6 0 0 1 6-6h178.76a6 6 0 0 1 6 6v33.68a6 6 0 0 1-6 6h-178.76a6 6 0 0 1-6-6z" stroke="#282c33" stroke-width="2" fill="#fff"/><use xlink:href="#ac" transform="matrix(1,0,0,1,2960.57141226189,1524.523676390942) translate(19.425925925925938 17.777777777777775)"/><use xlink:href="#ab" transform="matrix(1,0,0,1,2960.57141226189,1524.523676390942) translate(73.56172839506173 17.777777777777775)"/><path d="M3104.15 1473.7v12.67a6 6 0 0 0 6 6h141.36a2.77 2.77 0 0 1 2.8 2.77" stroke="#3a414a" fill="none"/><path d="M3104.62 1473.72h-.95v-.5h.95z" stroke="#3a414a" stroke-width=".05" fill="#3a414a"/><path d="M3254.3 1509.9l-4.65-14.26h9.27z" stroke="#3a414a" fill="#3a414a"/><path d="M3369.24 1518.52a6 6 0 0 1 6-6H3554a6 6 0 0 1 6 6v33.68a6 6 0 0 1-6 6h-178.76a6 6 0 0 1-6-6z" stroke="#282c33" stroke-width="2" fill="#fff"/><use xlink:href="#ad" transform="matrix(1,0,0,1,3381.244386883358,1524.523676390942) translate(2.7283950617284063 17.777777777777775)"/><use xlink:href="#ab" transform="matrix(1,0,0,1,3381.244386883358,1524.523676390942) translate(90.25925925925927 17.777777777777775)"/><path d="M2948.57 984.08a6 6 0 0 1 6-6h299.15a6 6 0 0 1 6 6v38.75a6 6 0 0 1-6 6h-299.15a6 6 0 0 1-6-6z" stroke="#282c33" stroke-width="2" fill="#edf5ff"/><use xlink:href="#ae" transform="matrix(1,0,0,1,2960.5714122618947,990.0774916931364) translate(43.481481481481495 21.333333333333332)"/><use xlink:href="#af" transform="matrix(1,0,0,1,2960.5714122618947,990.0774916931364) translate(155.92592592592592 21.333333333333332)"/><path d="M2948.57 1072.6a6 6 0 0 1 6-6h299.15a6 6 0 0 1 6 6v38.76a6 6 0 0 1-6 6h-299.15a6 6 0 0 1-6-6z" stroke="#282c33" stroke-width="2" fill="#edf5ff"/><use xlink:href="#ag" transform="matrix(1,0,0,1,2960.5714122618947,1078.60596923167) translate(109.22222222222223 21.333333333333332)"/><path d="M2948.57 1161.13a6 6 0 0 1 6-6h299.15a6 6 0 0 1 6 6v38.76a6 6 0 0 1-6 6h-299.15a6 6 0 0 1-6-6z" stroke="#282c33" stroke-width="2" fill="#edf5ff"/><use xlink:href="#ah" transform="matrix(1,0,0,1,2960.571412261892,1167.1344467702036) translate(79 21.333333333333332)"/><path d="M2947.07 903.12h-33.5a6 6 0 0 0-6 6v531.7a6 6 0 0 0 6 6h17.62" stroke="#3a414a" fill="none"/><path d="M2947.57 903.6h-.5v-.95h.5z" stroke="#3a414a" stroke-width=".05" fill="#3a414a"/><path d="M2945.95 1446.83l-14.26 4.64v-9.27z" stroke="#3a414a" fill="#3a414a"/><path d="M2947.07 903.12h-33.5a6 6 0 0 0-6 6v88.33a6 6 0 0 0 6 6h17.62" stroke="#3a414a" fill="none"/><path d="M2947.57 903.6h-.5v-.95h.5z" stroke="#3a414a" stroke-width=".05" fill="#3a414a"/><path d="M2945.95 1003.45l-14.26 4.64v-9.28z" stroke="#3a414a" fill="#3a414a"/><path d="M2947.07 903.12h-33.5a6 6 0 0 0-6 6v176.86a6 6 0 0 0 6 6h17.62" stroke="#3a414a" fill="none"/><path d="M2947.57 903.6h-.5v-.95h.5z" stroke="#3a414a" stroke-width=".05" fill="#3a414a"/><path d="M2945.95 1091.98l-14.26 4.64v-9.27z" stroke="#3a414a" fill="#3a414a"/><path d="M2947.07 903.12h-33.5a6 6 0 0 0-6 6v265.4a6 6 0 0 0 6 6h17.62" stroke="#3a414a" fill="none"/><path d="M2947.57 903.6h-.5v-.95h.5z" stroke="#3a414a" stroke-width=".05" fill="#3a414a"/><path d="M2945.95 1180.5l-14.26 4.65v-9.28z" stroke="#3a414a" fill="#3a414a"/><path d="M3368.85 876.66a6 6 0 0 1 6-6H3674a6 6 0 0 1 6 6v52.92a6 6 0 0 1-6 6h-299.15a6 6 0 0 1-6-6z" stroke="#282c33" stroke-width="2" fill="#e3fae3"/><use xlink:href="#ai" transform="matrix(1,0,0,1,3380.8479193291505,882.6605969231671) translate(86.33333333333334 26.458333333333332)"/><path d="M3368.85 984.08a6 6 0 0 1 6-6H3674a6 6 0 0 1 6 6v38.75a6 6 0 0 1-6 6h-299.15a6 6 0 0 1-6-6z" stroke="#282c33" stroke-width="2" fill="#edf5ff"/><use xlink:href="#aj" transform="matrix(1,0,0,1,3380.8479193291505,990.0774916931364) translate(71.62962962962963 21.333333333333332)"/><path d="M3368.85 1074.08a6 6 0 0 1 6-6H3674a6 6 0 0 1 6 6v38.75a6 6 0 0 1-6 6h-299.15a6 6 0 0 1-6-6z" stroke="#282c33" stroke-width="2" fill="#edf5ff"/><use xlink:href="#ak" transform="matrix(1,0,0,1,3380.8479193291505,1080.081443857312) translate(47.8888888888889 21.333333333333332)"/><use xlink:href="#al" transform="matrix(1,0,0,1,3380.8479193291505,1080.081443857312) translate(150.03703703703704 21.333333333333332)"/><path d="M3016.8 792.46h501.62a6 6 0 0 1 6 6v54.82" stroke="#3a414a" fill="none"/><path d="M3016.8 792.93h-.5V792h.5z" stroke="#3a414a" stroke-width=".05" fill="#3a414a"/><path d="M3524.42 868.04l-4.63-14.26h9.26z" stroke="#3a414a" fill="#3a414a"/><path d="M2702.65 792.46h-78.03a6 6 0 0 0-6 6v54.82" stroke="#3a414a" fill="none"/><path d="M2703.15 792.93h-.5V792h.5z" stroke="#3a414a" stroke-width=".05" fill="#3a414a"/><path d="M2618.62 868.04l-4.64-14.26h9.27z" stroke="#3a414a" fill="#3a414a"/><path d="M3104.15 1295.9v12.67a6 6 0 0 0 6 6h351.7a2.77 2.77 0 0 1 2.77 2.78" stroke="#3a414a" fill="none"/><path d="M3104.62 1295.93h-.95v-.52h.95z" stroke="#3a414a" stroke-width=".05" fill="#3a414a"/><path d="M3464.62 1332.1l-4.63-14.25h9.26z" stroke="#3a414a" fill="#3a414a"/><path d="M3104.15 1473.7v12.67a6 6 0 0 0 6 6h351.7a2.77 2.77 0 0 1 2.77 2.77" stroke="#3a414a" fill="none"/><path d="M3104.62 1473.72h-.95v-.5h.95z" stroke="#3a414a" stroke-width=".05" fill="#3a414a"/><path d="M3464.62 1509.9l-4.63-14.26h9.26z" stroke="#3a414a" fill="#3a414a"/><path d="M3367.35 903.12h-33.5a6 6 0 0 0-6 6v88.33a6 6 0 0 0 6 6h17.6" stroke="#3a414a" fill="none"/><path d="M3367.85 903.6h-.5v-.95h.5z" stroke="#3a414a" stroke-width=".05" fill="#3a414a"/><path d="M3366.23 1003.45l-14.27 4.64v-9.28z" stroke="#3a414a" fill="#3a414a"/><path d="M3367.35 903.12h-33.5a6 6 0 0 0-6 6v178.34a6 6 0 0 0 6 6h17.6" stroke="#3a414a" fill="none"/><path d="M3367.85 903.6h-.5v-.95h.5z" stroke="#3a414a" stroke-width=".05" fill="#3a414a"/><path d="M3366.23 1093.46l-14.27 4.63v-9.28z" stroke="#3a414a" fill="#3a414a"/><path d="M3016.8 792.46h81.35a6 6 0 0 1 6 6v54.82" stroke="#3a414a" fill="none"/><path d="M3016.8 792.93h-.5V792h.5z" stroke="#3a414a" stroke-width=".05" fill="#3a414a"/><path d="M3104.15 868.04l-4.64-14.26h9.28z" stroke="#3a414a" fill="#3a414a"/><path d="M1405.42 1032.9v11.38a6 6 0 0 1-6 6h-104.06a1.48 1.48 0 0 0-1.48 1.48" stroke="#3a414a" fill="none"/><path d="M1405.9 1032.92h-.96v-.5h.95z" stroke="#3a414a" stroke-width=".05" fill="#3a414a"/><path d="M1293.88 1066.53l-4.63-14.27h9.27z" stroke="#3a414a" fill="#3a414a"/><defs><path fill="#3a414a" d="M275 0h-61l-44-196L126 0H64L0-248h53L97-49l45-199h58l43 199 44-199h52" id="am"/><path fill="#3a414a" d="M186 0v-106H76V0H24v-248h52v99h110v-99h50V0h-50" id="an"/><path fill="#3a414a" d="M24 0v-248h195v40H76v63h132v40H76v65h150V0H24" id="ao"/><path fill="#3a414a" d="M240-174c0 40-23 61-54 70L253 0h-59l-57-94H76V0H24v-248c93 4 217-23 216 74zM76-134c48-2 112 12 112-38 0-48-66-32-112-35v73" id="ap"/><g id="a"><use transform="matrix(0.07407407407407407,0,0,0.07407407407407407,0,0)" xlink:href="#am"/><use transform="matrix(0.07407407407407407,0,0,0.07407407407407407,25.11111111111111,0)" xlink:href="#an"/><use transform="matrix(0.07407407407407407,0,0,0.07407407407407407,44.29629629629629,0)" xlink:href="#ao"/><use transform="matrix(0.07407407407407407,0,0,0.07407407407407407,62.07407407407407,0)" xlink:href="#ap"/><use transform="matrix(0.07407407407407407,0,0,0.07407407407407407,81.25925925925925,0)" xlink:href="#ao"/></g><path fill="#3a414a" d="M185-48c-13 30-37 53-82 52C43 2 14-33 14-96s30-98 90-98c62 0 83 45 84 108H66c0 31 8 55 39 56 18 0 30-7 34-22zm-45-69c5-46-57-63-70-21-2 6-4 13-4 21h74" id="aq"/><path fill="#3a414a" d="M121-226c-27-7-43 5-38 36h38v33H83V0H34v-157H6v-33h28c-9-59 32-81 87-68v32" id="ar"/><path fill="#3a414a" d="M135-150c-39-12-60 13-60 57V0H25l-1-190h47c2 13-1 29 3 40 6-28 27-53 61-41v41" id="as"/><path fill="#3a414a" d="M135-194c87-1 58 113 63 194h-50c-7-57 23-157-34-157-59 0-34 97-39 157H25l-1-190h47c2 12-1 28 3 38 12-26 28-41 61-42" id="at"/><path fill="#3a414a" d="M190-63c-7 42-38 67-86 67-59 0-84-38-90-98-12-110 154-137 174-36l-49 2c-2-19-15-32-35-32-30 0-35 28-38 64-6 74 65 87 74 30" id="au"/><g id="b"><use transform="matrix(0.07407407407407407,0,0,0.07407407407407407,0,0)" xlink:href="#ap"/><use transform="matrix(0.07407407407407407,0,0,0.07407407407407407,19.185185185185183,0)" xlink:href="#aq"/><use transform="matrix(0.07407407407407407,0,0,0.07407407407407407,34,0)" xlink:href="#ar"/><use transform="matrix(0.07407407407407407,0,0,0.07407407407407407,42.814814814814824,0)" xlink:href="#aq"/><use transform="matrix(0.07407407407407407,0,0,0.07407407407407407,57.62962962962963,0)" xlink:href="#as"/><use transform="matrix(0.07407407407407407,0,0,0.07407407407407407,68,0)" xlink:href="#aq"/><use transform="matrix(0.07407407407407407,0,0,0.07407407407407407,82.81481481481481,0)" xlink:href="#at"/><use transform="matrix(0.07407407407407407,0,0,0.07407407407407407,99.03703703703704,0)" xlink:href="#au"/><use transform="matrix(0.07407407407407407,0,0,0.07407407407407407,113.85185185185185,0)" xlink:href="#aq"/></g><path fill="#3a414a" d="M76-208v77h127v40H76V0H24v-248h183v40H76" id="av"/><path fill="#3a414a" d="M133-34C117-15 103 5 69 4 32 3 11-16 11-54c-1-60 55-63 116-61 1-26-3-47-28-47-18 1-26 9-28 27l-52-2c7-38 36-58 82-57s74 22 75 68l1 82c-1 14 12 18 25 15v27c-30 8-71 5-69-32zm-48 3c29 0 43-24 42-57-32 0-66-3-65 30 0 17 8 27 23 27" id="aw"/><path fill="#3a414a" d="M220-157c-53 9-28 100-34 157h-49v-107c1-27-5-49-29-50C55-147 81-57 75 0H25l-1-190h47c2 12-1 28 3 38 10-53 101-56 108 0 13-22 24-43 59-42 82 1 51 116 57 194h-49v-107c-1-25-5-48-29-50" id="ax"/><g id="c"><use transform="matrix(0.07407407407407407,0,0,0.07407407407407407,0,0)" xlink:href="#av"/><use transform="matrix(0.07407407407407407,0,0,0.07407407407407407,16.22222222222222,0)" xlink:href="#as"/><use transform="matrix(0.07407407407407407,0,0,0.07407407407407407,26.59259259259259,0)" xlink:href="#aw"/><use transform="matrix(0.07407407407407407,0,0,0.07407407407407407,41.407407407407405,0)" xlink:href="#ax"/><use transform="matrix(0.07407407407407407,0,0,0.07407407407407407,65.11111111111111,0)" xlink:href="#aq"/></g><path fill="#3a414a" d="M136-208V0H84v-208H4v-40h212v40h-80" id="ay"/><path fill="#3a414a" d="M195-6C206 82 75 100 31 46c-4-6-6-13-8-21l49-6c3 16 16 24 34 25 40 0 42-37 40-79-11 22-30 35-61 35-53 0-70-43-70-97 0-56 18-96 73-97 30 0 46 14 59 34l2-30h47zm-90-29c32 0 41-27 41-63 0-35-9-62-40-62-32 0-39 29-40 63 0 36 9 62 39 62" id="az"/><path fill="#3a414a" d="M115-3C79 11 28 4 28-45v-112H4v-33h27l15-45h31v45h36v33H77v99c-1 23 16 31 38 25v30" id="aA"/><g id="d"><use transform="matrix(0.07407407407407407,0,0,0.07407407407407407,0,0)" xlink:href="#ay"/><use transform="matrix(0.07407407407407407,0,0,0.07407407407407407,14.222222222222221,0)" xlink:href="#aw"/><use transform="matrix(0.07407407407407407,0,0,0.07407407407407407,29.037037037037035,0)" xlink:href="#as"/><use transform="matrix(0.07407407407407407,0,0,0.07407407407407407,39.407407407407405,0)" xlink:href="#az"/><use transform="matrix(0.07407407407407407,0,0,0.07407407407407407,55.629629629629626,0)" xlink:href="#aq"/><use transform="matrix(0.07407407407407407,0,0,0.07407407407407407,70.44444444444444,0)" xlink:href="#aA"/></g><path fill="#3a414a" d="M123 10C108 53 80 86 19 72V37c35 8 53-11 59-39L3-190h52l48 148c12-52 28-100 44-148h51" id="aB"/><path fill="#3a414a" d="M135-194c53 0 70 44 70 98 0 56-19 98-73 100-31 1-45-17-59-34 3 33 2 69 2 105H25l-1-265h48c2 10 0 23 3 31 11-24 29-35 60-35zM114-30c33 0 39-31 40-66 0-38-9-64-40-64-56 0-55 130 0 130" id="aC"/><g id="e"><use transform="matrix(0.07407407407407407,0,0,0.07407407407407407,0,0)" xlink:href="#ay"/><use transform="matrix(0.07407407407407407,0,0,0.07407407407407407,14.222222222222221,0)" xlink:href="#aB"/><use transform="matrix(0.07407407407407407,0,0,0.07407407407407407,29.037037037037035,0)" xlink:href="#aC"/><use transform="matrix(0.07407407407407407,0,0,0.07407407407407407,45.259259259259245,0)" xlink:href="#aq"/></g><path fill="#3a414a" d="M182-130c37 4 62 22 62 59C244 23 116-4 24 0v-248c84 5 203-23 205 63 0 31-19 50-47 55zM76-148c40-3 101 13 101-30 0-44-60-28-101-31v61zm0 110c48-3 116 14 116-37 0-48-69-32-116-35v72" id="aD"/><path fill="#3a414a" d="M110-194c64 0 96 36 96 99 0 64-35 99-97 99-61 0-95-36-95-99 0-62 34-99 96-99zm-1 164c35 0 45-28 45-65 0-40-10-65-43-65-34 0-45 26-45 65 0 36 10 65 43 65" id="aE"/><path fill="#3a414a" d="M88-194c31-1 46 15 58 34l-1-101h50l1 261h-48c-2-10 0-23-3-31C134-8 116 4 84 4 32 4 16-41 15-95c0-56 19-97 73-99zm17 164c33 0 40-30 41-66 1-37-9-64-41-64s-38 30-39 65c0 43 13 65 39 65" id="aF"/><path fill="#3a414a" d="M14-72v-43h91v43H14" id="aG"/><g id="f"><use transform="matrix(0.07407407407407407,0,0,0.07407407407407407,0,0)" xlink:href="#aD"/><use transform="matrix(0.07407407407407407,0,0,0.07407407407407407,19.185185185185183,0)" xlink:href="#aE"/><use transform="matrix(0.07407407407407407,0,0,0.07407407407407407,35.407407407407405,0)" xlink:href="#aF"/><use transform="matrix(0.07407407407407407,0,0,0.07407407407407407,51.629629629629626,0)" xlink:href="#aB"/><use transform="matrix(0.07407407407407407,0,0,0.07407407407407407,66.44444444444444,0)" xlink:href="#aG"/><use transform="matrix(0.07407407407407407,0,0,0.07407407407407407,75.25925925925925,0)" xlink:href="#as"/><use transform="matrix(0.07407407407407407,0,0,0.07407407407407407,85.62962962962962,0)" xlink:href="#aq"/><use transform="matrix(0.07407407407407407,0,0,0.07407407407407407,100.44444444444443,0)" xlink:href="#ar"/><use transform="matrix(0.07407407407407407,0,0,0.07407407407407407,109.25925925925924,0)" xlink:href="#aq"/><use transform="matrix(0.07407407407407407,0,0,0.07407407407407407,124.07407407407405,0)" xlink:href="#as"/><use transform="matrix(0.07407407407407407,0,0,0.07407407407407407,134.44444444444443,0)" xlink:href="#aq"/><use transform="matrix(0.07407407407407407,0,0,0.07407407407407407,149.25925925925924,0)" xlink:href="#at"/><use transform="matrix(0.07407407407407407,0,0,0.07407407407407407,165.48148148148147,0)" xlink:href="#au"/><use transform="matrix(0.07407407407407407,0,0,0.07407407407407407,180.29629629629628,0)" xlink:href="#aq"/><use transform="matrix(0.07407407407407407,0,0,0.07407407407407407,195.11111111111111,0)" xlink:href="#aF"/></g><path fill="#3a414a" d="M128 0H69L1-190h53L99-40l48-150h52" id="aH"/><path fill="#3a414a" d="M25-224v-37h50v37H25zM25 0v-190h50V0H25" id="aI"/><g id="g"><use transform="matrix(0.07407407407407407,0,0,0.07407407407407407,0,0)" xlink:href="#ao"/><use transform="matrix(0.07407407407407407,0,0,0.07407407407407407,17.77777777777778,0)" xlink:href="#at"/><use transform="matrix(0.07407407407407407,0,0,0.07407407407407407,34,0)" xlink:href="#aH"/><use transform="matrix(0.07407407407407407,0,0,0.07407407407407407,48.81481481481481,0)" xlink:href="#aI"/><use transform="matrix(0.07407407407407407,0,0,0.07407407407407407,56.22222222222221,0)" xlink:href="#as"/><use transform="matrix(0.07407407407407407,0,0,0.07407407407407407,66.59259259259258,0)" xlink:href="#aE"/><use transform="matrix(0.07407407407407407,0,0,0.07407407407407407,82.81481481481481,0)" xlink:href="#at"/><use transform="matrix(0.07407407407407407,0,0,0.07407407407407407,99.03703703703704,0)" xlink:href="#ax"/><use transform="matrix(0.07407407407407407,0,0,0.07407407407407407,122.74074074074073,0)" xlink:href="#aq"/><use transform="matrix(0.07407407407407407,0,0,0.07407407407407407,137.55555555555554,0)" xlink:href="#at"/><use transform="matrix(0.07407407407407407,0,0,0.07407407407407407,153.77777777777777,0)" xlink:href="#aA"/><use transform="matrix(0.07407407407407407,0,0,0.07407407407407407,162.59259259259258,0)" xlink:href="#aG"/><use transform="matrix(0.07407407407407407,0,0,0.07407407407407407,171.4074074074074,0)" xlink:href="#as"/><use transform="matrix(0.07407407407407407,0,0,0.07407407407407407,181.77777777777777,0)" xlink:href="#aq"/><use transform="matrix(0.07407407407407407,0,0,0.07407407407407407,196.59259259259258,0)" xlink:href="#ar"/><use transform="matrix(0.07407407407407407,0,0,0.07407407407407407,205.4074074074074,0)" xlink:href="#aq"/><use transform="matrix(0.07407407407407407,0,0,0.07407407407407407,220.2222222222222,0)" xlink:href="#as"/><use transform="matrix(0.07407407407407407,0,0,0.07407407407407407,230.59259259259258,0)" xlink:href="#aq"/><use transform="matrix(0.07407407407407407,0,0,0.07407407407407407,245.4074074074074,0)" xlink:href="#at"/><use transform="matrix(0.07407407407407407,0,0,0.07407407407407407,261.6296296296296,0)" xlink:href="#au"/><use transform="matrix(0.07407407407407407,0,0,0.07407407407407407,276.44444444444446,0)" xlink:href="#aq"/><use transform="matrix(0.07407407407407407,0,0,0.07407407407407407,291.2592592592593,0)" xlink:href="#aF"/></g><path fill="#3a414a" d="M179 0l23-115H67L45 0H11l48-248h34L72-143h135l21-105h32L212 0h-33" id="aJ"/><path fill="#3a414a" d="M165-48c-4 18 1 34 23 27l-3 20c-29 8-62 0-52-35h-2C116-14 99 4 63 4 30 4 8-16 8-49c0-68 71-67 138-67 10-26 0-56-31-54-26 1-42 9-47 31l-32-5c8-67 160-71 144 15-5 28-9 54-15 81zM42-50c3 52 80 24 89-6 7-12 7-24 11-38-47 1-103-4-100 44" id="aK"/><path fill="#3a414a" d="M67-158c22-48 132-52 116 29L158 0h-32l25-140c3-38-53-32-70-12C52-117 51-52 38 0H6l36-190h30" id="aL"/><path fill="#3a414a" d="M133-28C103 26-5 8 13-77c13-62 24-115 90-117 29-1 46 15 56 35l19-102h32L160 0h-30zM45-64c-2 27 10 43 35 43 54-1 69-50 69-103 0-29-15-46-42-46-53-1-58 58-62 106" id="aM"/><g id="h"><use transform="matrix(0.061728395061728385,0,0,0.061728395061728385,0,0)" xlink:href="#aJ"/><use transform="matrix(0.061728395061728385,0,0,0.061728395061728385,15.987654320987652,0)" xlink:href="#aK"/><use transform="matrix(0.061728395061728385,0,0,0.061728395061728385,28.33333333333333,0)" xlink:href="#aL"/><use transform="matrix(0.061728395061728385,0,0,0.061728395061728385,40.679012345679006,0)" xlink:href="#aM"/></g><path fill="#3a414a" d="M151-220L108 0H75l42-220H32l6-28h203l-5 28h-85" id="aN"/><path fill="#3a414a" d="M30-147c31-64 166-65 159 27C183-49 158 1 86 4 9 8 1-88 30-147zM88-20c53 0 68-48 68-100 0-31-11-51-44-50-52 1-68 46-68 97 0 32 13 53 44 53" id="aO"/><path fill="#3a414a" d="M66-151c12-25 30-51 66-40l-6 26C45-176 58-65 38 0H6l36-190h30" id="aP"/><path fill="#3a414a" d="M55-144c13 50 104 24 104 88C159 21 15 23 1-39l26-10c6 40 102 42 102-4-13-50-104-23-104-87 0-71 143-71 148-8l-29 4c-5-35-85-37-89 0" id="aQ"/><g id="i"><use transform="matrix(0.061728395061728385,0,0,0.061728395061728385,0,0)" xlink:href="#aN"/><use transform="matrix(0.061728395061728385,0,0,0.061728395061728385,11.48148148148148,0)" xlink:href="#aO"/><use transform="matrix(0.061728395061728385,0,0,0.061728395061728385,23.827160493827158,0)" xlink:href="#aP"/><use transform="matrix(0.061728395061728385,0,0,0.061728395061728385,31.172839506172835,0)" xlink:href="#aQ"/><use transform="matrix(0.061728395061728385,0,0,0.061728395061728385,42.28395061728394,0)" xlink:href="#aO"/></g><path fill="#3a414a" d="M111-194c62-3 86 47 72 106H45c-7 38 6 69 45 68 27-1 43-14 53-32l24 11C152-15 129 4 87 4 38 3 12-23 12-71c0-70 32-119 99-123zm44 81c14-66-71-72-95-28-4 8-8 17-11 28h106" id="aR"/><g id="j"><use transform="matrix(0.061728395061728385,0,0,0.061728395061728385,0,0)" xlink:href="#aJ"/><use transform="matrix(0.061728395061728385,0,0,0.061728395061728385,15.987654320987652,0)" xlink:href="#aR"/><use transform="matrix(0.061728395061728385,0,0,0.061728395061728385,28.33333333333333,0)" xlink:href="#aK"/><use transform="matrix(0.061728395061728385,0,0,0.061728395061728385,40.679012345679006,0)" xlink:href="#aM"/></g><path fill="#3a414a" d="M238-179c0 84-86 86-175 82L45 0H11l48-248c82 0 179-12 179 69zm-34 1c0-53-64-42-116-43l-19 98c63 0 135 9 135-55" id="aS"/><path fill="#3a414a" d="M50-231l6-30h32l-6 30H50zM6 0l37-190h31L37 0H6" id="aT"/><path fill="#3a414a" d="M67-162c32-53 139-36 121 50C175-51 163 2 97 4 68 4 52-11 42-31 38 6 28 39 22 75H-9l50-265h29c-1 10 0 20-3 28zm89 36c0-26-10-43-35-43-54 0-67 50-69 103-1 29 14 45 42 46 53 0 62-58 62-106" id="aU"/><path fill="#3a414a" d="M6 0l50-261h32L37 0H6" id="aV"/><g id="k"><use transform="matrix(0.061728395061728385,0,0,0.061728395061728385,0,0)" xlink:href="#aS"/><use transform="matrix(0.061728395061728385,0,0,0.061728395061728385,14.814814814814813,0)" xlink:href="#aR"/><use transform="matrix(0.061728395061728385,0,0,0.061728395061728385,27.16049382716049,0)" xlink:href="#aP"/><use transform="matrix(0.061728395061728385,0,0,0.061728395061728385,34.50617283950617,0)" xlink:href="#aT"/><use transform="matrix(0.061728395061728385,0,0,0.061728395061728385,39.382716049382715,0)" xlink:href="#aU"/><use transform="matrix(0.061728395061728385,0,0,0.061728395061728385,51.72839506172839,0)" xlink:href="#aR"/><use transform="matrix(0.061728395061728385,0,0,0.061728395061728385,64.07407407407408,0)" xlink:href="#aP"/><use transform="matrix(0.061728395061728385,0,0,0.061728395061728385,71.41975308641976,0)" xlink:href="#aQ"/><use transform="matrix(0.061728395061728385,0,0,0.061728395061728385,82.53086419753087,0)" xlink:href="#aO"/><use transform="matrix(0.061728395061728385,0,0,0.061728395061728385,94.87654320987656,0)" xlink:href="#aL"/><use transform="matrix(0.061728395061728385,0,0,0.061728395061728385,107.22222222222223,0)" xlink:href="#aK"/><use transform="matrix(0.061728395061728385,0,0,0.061728395061728385,119.5679012345679,0)" xlink:href="#aV"/></g><path fill="#3a414a" d="M11 0l48-248h184l-5 28H87l-15 79h140l-5 27H67L50-27h158l-5 27H11" id="aW"/><path fill="#3a414a" d="M124 0L87-78 21 0h-35l86-98-46-92h33l34 74 61-74h37l-83 92 50 98h-34" id="aX"/><path fill="#3a414a" d="M51-54c-9 22 5 41 31 30L79-1C43 14 10-4 19-52l22-115H19l5-23h22l19-43h21l-9 43h35l-4 23H73" id="aY"/><g id="l"><use transform="matrix(0.061728395061728385,0,0,0.061728395061728385,0,0)" xlink:href="#aW"/><use transform="matrix(0.061728395061728385,0,0,0.061728395061728385,14.814814814814813,0)" xlink:href="#aX"/><use transform="matrix(0.061728395061728385,0,0,0.061728395061728385,25.925925925925924,0)" xlink:href="#aY"/><use transform="matrix(0.061728395061728385,0,0,0.061728395061728385,32.09876543209876,0)" xlink:href="#aP"/><use transform="matrix(0.061728395061728385,0,0,0.061728395061728385,39.444444444444436,0)" xlink:href="#aK"/><use transform="matrix(0.061728395061728385,0,0,0.061728395061728385,51.79012345679011,0)" xlink:href="#aU"/><use transform="matrix(0.061728395061728385,0,0,0.061728395061728385,64.1358024691358,0)" xlink:href="#aR"/><use transform="matrix(0.061728395061728385,0,0,0.061728395061728385,76.48148148148147,0)" xlink:href="#aP"/><use transform="matrix(0.061728395061728385,0,0,0.061728395061728385,83.82716049382715,0)" xlink:href="#aQ"/><use transform="matrix(0.061728395061728385,0,0,0.061728395061728385,94.93827160493827,0)" xlink:href="#aO"/><use transform="matrix(0.061728395061728385,0,0,0.061728395061728385,107.28395061728395,0)" xlink:href="#aL"/><use transform="matrix(0.061728395061728385,0,0,0.061728395061728385,119.62962962962962,0)" xlink:href="#aK"/><use transform="matrix(0.061728395061728385,0,0,0.061728395061728385,131.9753086419753,0)" xlink:href="#aV"/></g><path fill="#3a414a" d="M128-127c34 4 56 21 59 58 7 91-148 94-172 28-4-9-6-17-7-26l51-5c1 24 16 35 40 36 23 0 39-12 38-36-1-31-31-36-65-34v-40c32 2 59-3 59-33 0-20-13-33-34-33s-33 13-35 32l-50-3c6-44 37-68 86-68 50 0 83 20 83 66 0 35-22 52-53 58" id="aZ"/><path fill="#3a414a" d="M24-248c120-7 223 5 221 122C244-46 201 0 124 0H24v-248zM76-40c74 7 117-18 117-86 0-67-45-88-117-82v168" id="ba"/><g id="m"><use transform="matrix(0.07407407407407407,0,0,0.07407407407407407,0,0)" xlink:href="#aZ"/><use transform="matrix(0.07407407407407407,0,0,0.07407407407407407,14.814814814814813,0)" xlink:href="#ba"/></g><path fill="#3a414a" d="M140-251c80 0 125 45 125 126S219 4 139 4C58 4 15-44 15-125s44-126 125-126zm-1 214c52 0 73-35 73-88 0-50-21-86-72-86-52 0-73 35-73 86s22 88 72 88" id="bb"/><path fill="#3a414a" d="M135-194c52 0 70 43 70 98 0 56-19 99-73 100-30 1-46-15-58-35L72 0H24l1-261h50v104c11-23 29-37 60-37zM114-30c31 0 40-27 40-66 0-37-7-63-39-63s-41 28-41 65c0 36 8 64 40 64" id="bc"/><path fill="#3a414a" d="M25-224v-37h50v37H25zM75 22c2 45-34 59-81 51V38c22 5 31-5 31-27v-201h50V22" id="bd"/><g id="n"><use transform="matrix(0.07407407407407407,0,0,0.07407407407407407,0,0)" xlink:href="#bb"/><use transform="matrix(0.07407407407407407,0,0,0.07407407407407407,20.74074074074074,0)" xlink:href="#bc"/><use transform="matrix(0.07407407407407407,0,0,0.07407407407407407,36.96296296296296,0)" xlink:href="#bd"/><use transform="matrix(0.07407407407407407,0,0,0.07407407407407407,44.37037037037037,0)" xlink:href="#aq"/><use transform="matrix(0.07407407407407407,0,0,0.07407407407407407,59.185185185185176,0)" xlink:href="#au"/><use transform="matrix(0.07407407407407407,0,0,0.07407407407407407,73.99999999999999,0)" xlink:href="#aA"/></g><path fill="#3a414a" d="M199 0l-22-63H83L61 0H9l90-248h61L250 0h-51zm-33-102l-36-108c-10 38-24 72-36 108h72" id="be"/><g id="o"><use transform="matrix(0.07407407407407407,0,0,0.07407407407407407,0,0)" xlink:href="#be"/><use transform="matrix(0.07407407407407407,0,0,0.07407407407407407,18.22222222222222,0)" xlink:href="#aH"/><use transform="matrix(0.07407407407407407,0,0,0.07407407407407407,33.03703703703704,0)" xlink:href="#aw"/><use transform="matrix(0.07407407407407407,0,0,0.07407407407407407,47.85185185185185,0)" xlink:href="#aA"/><use transform="matrix(0.07407407407407407,0,0,0.07407407407407407,56.666666666666664,0)" xlink:href="#aw"/><use transform="matrix(0.07407407407407407,0,0,0.07407407407407407,71.48148148148148,0)" xlink:href="#as"/></g><path fill="#3a414a" d="M238-95c0 69-44 99-111 99C63 4 22-25 22-93v-155h51v151c-1 38 19 59 55 60 90 1 49-130 58-211h52v153" id="bf"/><path fill="#3a414a" d="M24 0v-248h52V0H24" id="bg"/><g id="p"><use transform="matrix(0.07407407407407407,0,0,0.07407407407407407,0,0)" xlink:href="#bf"/><use transform="matrix(0.07407407407407407,0,0,0.07407407407407407,19.185185185185183,0)" xlink:href="#bg"/></g><path fill="#3a414a" d="M25 0v-261h50V0H25" id="bh"/><g id="q"><use transform="matrix(0.07407407407407407,0,0,0.07407407407407407,0,0)" xlink:href="#ao"/><use transform="matrix(0.07407407407407407,0,0,0.07407407407407407,17.77777777777778,0)" xlink:href="#bh"/><use transform="matrix(0.07407407407407407,0,0,0.07407407407407407,25.185185185185183,0)" xlink:href="#aq"/><use transform="matrix(0.07407407407407407,0,0,0.07407407407407407,40,0)" xlink:href="#ax"/><use transform="matrix(0.07407407407407407,0,0,0.07407407407407407,63.7037037037037,0)" xlink:href="#aq"/><use transform="matrix(0.07407407407407407,0,0,0.07407407407407407,78.51851851851852,0)" xlink:href="#at"/><use transform="matrix(0.07407407407407407,0,0,0.07407407407407407,94.74074074074073,0)" xlink:href="#aA"/></g><path fill="#3a414a" d="M169-182c-1-43-94-46-97-3 18 66 151 10 154 114 3 95-165 93-204 36-6-8-10-19-12-30l50-8c3 46 112 56 116 5-17-69-150-10-154-114-4-87 153-88 188-35 5 8 8 18 10 28" id="bi"/><g id="r"><use transform="matrix(0.07407407407407407,0,0,0.07407407407407407,0,0)" xlink:href="#bi"/><use transform="matrix(0.07407407407407407,0,0,0.07407407407407407,17.77777777777778,0)" xlink:href="#aA"/><use transform="matrix(0.07407407407407407,0,0,0.07407407407407407,26.592592592592595,0)" xlink:href="#aE"/><use transform="matrix(0.07407407407407407,0,0,0.07407407407407407,42.814814814814824,0)" xlink:href="#as"/><use transform="matrix(0.07407407407407407,0,0,0.07407407407407407,53.18518518518519,0)" xlink:href="#aw"/><use transform="matrix(0.07407407407407407,0,0,0.07407407407407407,68,0)" xlink:href="#az"/><use transform="matrix(0.07407407407407407,0,0,0.07407407407407407,84.22222222222223,0)" xlink:href="#aq"/></g><g id="s"><use transform="matrix(0.07407407407407407,0,0,0.07407407407407407,0,0)" xlink:href="#bf"/><use transform="matrix(0.07407407407407407,0,0,0.07407407407407407,19.185185185185183,0)" xlink:href="#at"/><use transform="matrix(0.07407407407407407,0,0,0.07407407407407407,35.407407407407405,0)" xlink:href="#aI"/><use transform="matrix(0.07407407407407407,0,0,0.07407407407407407,42.81481481481481,0)" xlink:href="#aA"/></g><path fill="#3a414a" d="M137-138c1-29-70-34-71-4 15 46 118 7 119 86 1 83-164 76-172 9l43-7c4 19 20 25 44 25 33 8 57-30 24-41C81-84 22-81 20-136c-2-80 154-74 161-7" id="bj"/><g id="t"><use transform="matrix(0.07407407407407404,0,0,0.07407407407407404,0,0)" xlink:href="#ba"/><use transform="matrix(0.07407407407407404,0,0,0.07407407407407404,19.185185185185176,0)" xlink:href="#aI"/><use transform="matrix(0.07407407407407404,0,0,0.07407407407407404,26.59259259259258,0)" xlink:href="#bj"/><use transform="matrix(0.07407407407407404,0,0,0.07407407407407404,41.40740740740739,0)" xlink:href="#au"/><use transform="matrix(0.07407407407407404,0,0,0.07407407407407404,56.2222222222222,0)" xlink:href="#as"/><use transform="matrix(0.07407407407407404,0,0,0.07407407407407404,66.59259259259257,0)" xlink:href="#aq"/><use transform="matrix(0.07407407407407404,0,0,0.07407407407407404,81.40740740740738,0)" xlink:href="#aA"/><use transform="matrix(0.07407407407407404,0,0,0.07407407407407404,90.22222222222219,0)" xlink:href="#aq"/></g><path fill="#3a414a" d="M67-125c0 53 21 87 73 88 37 1 54-22 65-47l45 17C233-25 199 4 140 4 58 4 20-42 15-125 8-235 124-281 211-232c18 10 29 29 36 50l-46 12c-8-25-30-41-62-41-52 0-71 34-72 86" id="bk"/><path fill="#3a414a" d="M85 4C-2 5 27-109 22-190h50c7 57-23 150 33 157 60-5 35-97 40-157h50l1 190h-47c-2-12 1-28-3-38-12 25-28 42-61 42" id="bl"/><g id="u"><use transform="matrix(0.07407407407407404,0,0,0.07407407407407404,0,0)" xlink:href="#bk"/><use transform="matrix(0.07407407407407404,0,0,0.07407407407407404,19.185185185185176,0)" xlink:href="#aE"/><use transform="matrix(0.07407407407407404,0,0,0.07407407407407404,35.40740740740739,0)" xlink:href="#at"/><use transform="matrix(0.07407407407407404,0,0,0.07407407407407404,51.629629629629605,0)" xlink:href="#ar"/><use transform="matrix(0.07407407407407404,0,0,0.07407407407407404,60.44444444444442,0)" xlink:href="#aI"/><use transform="matrix(0.07407407407407404,0,0,0.07407407407407404,67.85185185185182,0)" xlink:href="#az"/><use transform="matrix(0.07407407407407404,0,0,0.07407407407407404,84.07407407407403,0)" xlink:href="#bl"/><use transform="matrix(0.07407407407407404,0,0,0.07407407407407404,100.29629629629625,0)" xlink:href="#as"/><use transform="matrix(0.07407407407407404,0,0,0.07407407407407404,110.66666666666661,0)" xlink:href="#aw"/><use transform="matrix(0.07407407407407404,0,0,0.07407407407407404,125.48148148148142,0)" xlink:href="#aA"/><use transform="matrix(0.07407407407407404,0,0,0.07407407407407404,134.29629629629625,0)" xlink:href="#aI"/><use transform="matrix(0.07407407407407404,0,0,0.07407407407407404,141.70370370370364,0)" xlink:href="#aE"/><use transform="matrix(0.07407407407407404,0,0,0.07407407407407404,157.92592592592587,0)" xlink:href="#at"/></g><g id="v"><use transform="matrix(0.07407407407407407,0,0,0.07407407407407407,0,0)" xlink:href="#an"/><use transform="matrix(0.07407407407407407,0,0,0.07407407407407407,19.185185185185183,0)" xlink:href="#bb"/><use transform="matrix(0.07407407407407407,0,0,0.07407407407407407,39.925925925925924,0)" xlink:href="#am"/></g><g id="w"><use transform="matrix(0.07407407407407407,0,0,0.07407407407407407,0,0)" xlink:href="#bg"/><use transform="matrix(0.07407407407407407,0,0,0.07407407407407407,7.4074074074074066,0)" xlink:href="#at"/><use transform="matrix(0.07407407407407407,0,0,0.07407407407407407,23.629629629629623,0)" xlink:href="#aF"/><use transform="matrix(0.07407407407407407,0,0,0.07407407407407407,39.85185185185185,0)" xlink:href="#aI"/><use transform="matrix(0.07407407407407407,0,0,0.07407407407407407,47.259259259259245,0)" xlink:href="#au"/><use transform="matrix(0.07407407407407407,0,0,0.07407407407407407,62.07407407407406,0)" xlink:href="#aw"/><use transform="matrix(0.07407407407407407,0,0,0.07407407407407407,76.88888888888887,0)" xlink:href="#aA"/><use transform="matrix(0.07407407407407407,0,0,0.07407407407407407,85.70370370370368,0)" xlink:href="#aI"/><use transform="matrix(0.07407407407407407,0,0,0.07407407407407407,93.11111111111109,0)" xlink:href="#aE"/><use transform="matrix(0.07407407407407407,0,0,0.07407407407407407,109.33333333333331,0)" xlink:href="#at"/></g><path fill="#3a414a" d="M24-248c93 1 206-16 204 79-1 75-69 88-152 82V0H24v-248zm52 121c47 0 100 7 100-41 0-47-54-39-100-39v80" id="bm"/><g id="x"><use transform="matrix(0.07407407407407407,0,0,0.07407407407407407,0,0)" xlink:href="#bm"/><use transform="matrix(0.07407407407407407,0,0,0.07407407407407407,17.77777777777778,0)" xlink:href="#aE"/><use transform="matrix(0.07407407407407407,0,0,0.07407407407407407,34,0)" xlink:href="#aI"/><use transform="matrix(0.07407407407407407,0,0,0.07407407407407407,41.407407407407405,0)" xlink:href="#at"/><use transform="matrix(0.07407407407407407,0,0,0.07407407407407407,57.629629629629626,0)" xlink:href="#aA"/><use transform="matrix(0.07407407407407407,0,0,0.07407407407407407,66.44444444444444,0)" xlink:href="#aI"/><use transform="matrix(0.07407407407407407,0,0,0.07407407407407407,73.85185185185185,0)" xlink:href="#at"/><use transform="matrix(0.07407407407407407,0,0,0.07407407407407407,90.07407407407408,0)" xlink:href="#az"/></g><g id="y"><use transform="matrix(0.07407407407407407,0,0,0.07407407407407407,0,0)" xlink:href="#bg"/><use transform="matrix(0.07407407407407407,0,0,0.07407407407407407,7.4074074074074066,0)" xlink:href="#at"/><use transform="matrix(0.07407407407407407,0,0,0.07407407407407407,23.629629629629623,0)" xlink:href="#aA"/><use transform="matrix(0.07407407407407407,0,0,0.07407407407407407,32.44444444444444,0)" xlink:href="#aq"/><use transform="matrix(0.07407407407407407,0,0,0.07407407407407407,47.259259259259245,0)" xlink:href="#as"/><use transform="matrix(0.07407407407407407,0,0,0.07407407407407407,57.62962962962962,0)" xlink:href="#bj"/><use transform="matrix(0.07407407407407407,0,0,0.07407407407407407,72.44444444444443,0)" xlink:href="#aq"/><use transform="matrix(0.07407407407407407,0,0,0.07407407407407407,87.25925925925924,0)" xlink:href="#au"/><use transform="matrix(0.07407407407407407,0,0,0.07407407407407407,102.07407407407405,0)" xlink:href="#aA"/><use transform="matrix(0.07407407407407407,0,0,0.07407407407407407,110.88888888888884,0)" xlink:href="#aI"/><use transform="matrix(0.07407407407407407,0,0,0.07407407407407407,118.29629629629626,0)" xlink:href="#at"/><use transform="matrix(0.07407407407407407,0,0,0.07407407407407407,134.51851851851848,0)" xlink:href="#az"/></g><g id="z"><use transform="matrix(0.061728395061728385,0,0,0.061728395061728385,0,0)" xlink:href="#aJ"/><use transform="matrix(0.061728395061728385,0,0,0.061728395061728385,15.987654320987652,0)" xlink:href="#aR"/><use transform="matrix(0.061728395061728385,0,0,0.061728395061728385,28.33333333333333,0)" xlink:href="#aK"/><use transform="matrix(0.061728395061728385,0,0,0.061728395061728385,40.679012345679006,0)" xlink:href="#aM"/></g><path fill="#3a414a" d="M103-194c29 0 47 14 56 36 2-11 5-23 8-32h30L160-5C157 61 82 97 21 62 9 55 4 45 1 30l28-7c7 42 83 31 92-3 4-16 9-38 13-55-13 20-29 36-62 36-40 0-60-25-60-64 0-71 23-131 91-131zm4 24c-53 0-58 54-61 104-2 27 10 44 36 44 49 0 65-50 67-102 1-29-15-46-42-46" id="bn"/><path fill="#3a414a" d="M-8 0l5-24 140-142H31l5-24h145l-5 24L36-24h119l-5 24H-8" id="bo"/><g id="A"><use transform="matrix(0.061728395061728385,0,0,0.061728395061728385,0,0)" xlink:href="#bn"/><use transform="matrix(0.061728395061728385,0,0,0.061728395061728385,12.345679012345677,0)" xlink:href="#aK"/><use transform="matrix(0.061728395061728385,0,0,0.061728395061728385,24.691358024691354,0)" xlink:href="#bo"/><use transform="matrix(0.061728395061728385,0,0,0.061728395061728385,35.80246913580246,0)" xlink:href="#aR"/></g><g id="B"><use transform="matrix(0.061728395061728385,0,0,0.061728395061728385,0,0)" xlink:href="#aJ"/><use transform="matrix(0.061728395061728385,0,0,0.061728395061728385,15.987654320987652,0)" xlink:href="#aK"/><use transform="matrix(0.061728395061728385,0,0,0.061728395061728385,28.33333333333333,0)" xlink:href="#aL"/><use transform="matrix(0.061728395061728385,0,0,0.061728395061728385,40.679012345679006,0)" xlink:href="#aM"/></g><path fill="#3a414a" d="M198-190L69 30C53 58 25 83-20 72c4-11-1-27 19-22 33-1 43-29 59-52L20-190h32L79-34l84-156h35" id="bp"/><g id="C"><use transform="matrix(0.061728395061728385,0,0,0.061728395061728385,0,0)" xlink:href="#aP"/><use transform="matrix(0.061728395061728385,0,0,0.061728395061728385,7.345679012345678,0)" xlink:href="#aK"/><use transform="matrix(0.061728395061728385,0,0,0.061728395061728385,19.691358024691354,0)" xlink:href="#bp"/></g><g id="D"><use transform="matrix(0.07407407407407407,0,0,0.07407407407407407,0,0)" xlink:href="#be"/><use transform="matrix(0.07407407407407407,0,0,0.07407407407407407,19.185185185185183,0)" xlink:href="#aI"/><use transform="matrix(0.07407407407407407,0,0,0.07407407407407407,26.592592592592588,0)" xlink:href="#ax"/><use transform="matrix(0.07407407407407407,0,0,0.07407407407407407,50.29629629629629,0)" xlink:href="#aI"/><use transform="matrix(0.07407407407407407,0,0,0.07407407407407407,57.703703703703695,0)" xlink:href="#at"/><use transform="matrix(0.07407407407407407,0,0,0.07407407407407407,73.92592592592592,0)" xlink:href="#az"/></g><path fill="#3a414a" d="M67-158c15-20 31-36 64-36 94 0 33 127 27 194h-32l25-140c3-38-53-32-70-12C52-117 51-51 37 0H6l51-261h31" id="bq"/><path fill="#3a414a" d="M188 0h-37l-8-164L71 0H34L18-190h31l8 164 75-164h34l8 164 74-164h31" id="br"/><g id="E"><use transform="matrix(0.061728395061728385,0,0,0.061728395061728385,0,0)" xlink:href="#aN"/><use transform="matrix(0.061728395061728385,0,0,0.061728395061728385,13.518518518518515,0)" xlink:href="#bq"/><use transform="matrix(0.061728395061728385,0,0,0.061728395061728385,25.864197530864192,0)" xlink:href="#aP"/><use transform="matrix(0.061728395061728385,0,0,0.061728395061728385,33.20987654320987,0)" xlink:href="#aO"/><use transform="matrix(0.061728395061728385,0,0,0.061728395061728385,45.55555555555555,0)" xlink:href="#br"/><use transform="matrix(0.061728395061728385,0,0,0.061728395061728385,61.5432098765432,0)" xlink:href="#aT"/><use transform="matrix(0.061728395061728385,0,0,0.061728395061728385,66.41975308641975,0)" xlink:href="#aL"/><use transform="matrix(0.061728395061728385,0,0,0.061728395061728385,78.76543209876542,0)" xlink:href="#bn"/></g><path fill="#3a414a" d="M194-120c59 52 2 134-86 124-53-6-90-18-98-63l31-7c8 30 29 43 70 43 46 0 84-17 71-62-32-43-135-20-137-98-3-89 178-90 191-16l-30 9c-8-48-127-53-127 5 0 53 81 35 115 65" id="bs"/><g id="F"><use transform="matrix(0.061728395061728385,0,0,0.061728395061728385,0,0)" xlink:href="#bs"/><use transform="matrix(0.061728395061728385,0,0,0.061728395061728385,14.814814814814813,0)" xlink:href="#bq"/><use transform="matrix(0.061728395061728385,0,0,0.061728395061728385,27.16049382716049,0)" xlink:href="#aO"/><use transform="matrix(0.061728395061728385,0,0,0.061728395061728385,39.50617283950616,0)" xlink:href="#aO"/><use transform="matrix(0.061728395061728385,0,0,0.061728395061728385,51.85185185185184,0)" xlink:href="#aY"/><use transform="matrix(0.061728395061728385,0,0,0.061728395061728385,58.02469135802468,0)" xlink:href="#aT"/><use transform="matrix(0.061728395061728385,0,0,0.061728395061728385,62.90123456790123,0)" xlink:href="#aL"/><use transform="matrix(0.061728395061728385,0,0,0.061728395061728385,75.24691358024691,0)" xlink:href="#bn"/></g><g id="G"><use transform="matrix(0.07407407407407407,0,0,0.07407407407407407,0,0)" xlink:href="#ao"/><use transform="matrix(0.07407407407407407,0,0,0.07407407407407407,17.77777777777778,0)" xlink:href="#at"/><use transform="matrix(0.07407407407407407,0,0,0.07407407407407407,34,0)" xlink:href="#au"/><use transform="matrix(0.07407407407407407,0,0,0.07407407407407407,48.81481481481481,0)" xlink:href="#bh"/><use transform="matrix(0.07407407407407407,0,0,0.07407407407407407,56.22222222222221,0)" xlink:href="#aE"/><use transform="matrix(0.07407407407407407,0,0,0.07407407407407407,72.44444444444443,0)" xlink:href="#bj"/><use transform="matrix(0.07407407407407407,0,0,0.07407407407407407,87.25925925925924,0)" xlink:href="#aI"/><use transform="matrix(0.07407407407407407,0,0,0.07407407407407407,94.66666666666664,0)" xlink:href="#at"/><use transform="matrix(0.07407407407407407,0,0,0.07407407407407407,110.88888888888884,0)" xlink:href="#az"/></g><g id="H"><use transform="matrix(0.07407407407407407,0,0,0.07407407407407407,0,0)" xlink:href="#ba"/><use transform="matrix(0.07407407407407407,0,0,0.07407407407407407,19.185185185185183,0)" xlink:href="#aI"/><use transform="matrix(0.07407407407407407,0,0,0.07407407407407407,26.592592592592588,0)" xlink:href="#bj"/><use transform="matrix(0.07407407407407407,0,0,0.07407407407407407,41.407407407407405,0)" xlink:href="#au"/><use transform="matrix(0.07407407407407407,0,0,0.07407407407407407,56.22222222222221,0)" xlink:href="#as"/><use transform="matrix(0.07407407407407407,0,0,0.07407407407407407,66.59259259259258,0)" xlink:href="#aq"/><use transform="matrix(0.07407407407407407,0,0,0.07407407407407407,81.40740740740739,0)" xlink:href="#aA"/><use transform="matrix(0.07407407407407407,0,0,0.07407407407407407,90.2222222222222,0)" xlink:href="#aq"/></g><path fill="#3a414a" d="M230 0l2-204L168 0h-37L68-204 70 0H24v-248h70l56 185 57-185h69V0h-46" id="bt"/><g id="I"><use transform="matrix(0.07407407407407407,0,0,0.07407407407407407,0,0)" xlink:href="#bt"/><use transform="matrix(0.07407407407407407,0,0,0.07407407407407407,22.148148148148145,0)" xlink:href="#aw"/><use transform="matrix(0.07407407407407407,0,0,0.07407407407407407,36.96296296296296,0)" xlink:href="#at"/><use transform="matrix(0.07407407407407407,0,0,0.07407407407407407,53.18518518518518,0)" xlink:href="#aI"/><use transform="matrix(0.07407407407407407,0,0,0.07407407407407407,60.59259259259259,0)" xlink:href="#aC"/><use transform="matrix(0.07407407407407407,0,0,0.07407407407407407,76.81481481481481,0)" xlink:href="#bl"/><use transform="matrix(0.07407407407407407,0,0,0.07407407407407407,93.03703703703704,0)" xlink:href="#bh"/><use transform="matrix(0.07407407407407407,0,0,0.07407407407407407,100.44444444444444,0)" xlink:href="#aw"/><use transform="matrix(0.07407407407407407,0,0,0.07407407407407407,115.25925925925925,0)" xlink:href="#aA"/><use transform="matrix(0.07407407407407407,0,0,0.07407407407407407,124.07407407407406,0)" xlink:href="#aI"/><use transform="matrix(0.07407407407407407,0,0,0.07407407407407407,131.48148148148147,0)" xlink:href="#aE"/><use transform="matrix(0.07407407407407407,0,0,0.07407407407407407,147.7037037037037,0)" xlink:href="#at"/></g><g id="J"><use transform="matrix(0.07407407407407407,0,0,0.07407407407407407,0,0)" xlink:href="#bg"/><use transform="matrix(0.07407407407407407,0,0,0.07407407407407407,7.4074074074074066,0)" xlink:href="#at"/><use transform="matrix(0.07407407407407407,0,0,0.07407407407407407,23.629629629629623,0)" xlink:href="#aA"/><use transform="matrix(0.07407407407407407,0,0,0.07407407407407407,32.44444444444444,0)" xlink:href="#aq"/><use transform="matrix(0.07407407407407407,0,0,0.07407407407407407,47.259259259259245,0)" xlink:href="#as"/><use transform="matrix(0.07407407407407407,0,0,0.07407407407407407,57.62962962962962,0)" xlink:href="#aw"/><use transform="matrix(0.07407407407407407,0,0,0.07407407407407407,72.44444444444443,0)" xlink:href="#au"/><use transform="matrix(0.07407407407407407,0,0,0.07407407407407407,87.25925925925924,0)" xlink:href="#aA"/><use transform="matrix(0.07407407407407407,0,0,0.07407407407407407,96.07407407407405,0)" xlink:href="#aE"/><use transform="matrix(0.07407407407407407,0,0,0.07407407407407407,112.29629629629628,0)" xlink:href="#as"/></g><g id="K"><use transform="matrix(0.07407407407407407,0,0,0.07407407407407407,0,0)" xlink:href="#ap"/><use transform="matrix(0.07407407407407407,0,0,0.07407407407407407,19.185185185185183,0)" xlink:href="#aw"/><use transform="matrix(0.07407407407407407,0,0,0.07407407407407407,34,0)" xlink:href="#aB"/></g><path fill="#3a414a" d="M147 0H94L2-248h55l64 206c17-72 42-137 63-206h54" id="bu"/><g id="L"><use transform="matrix(0.07407407407407407,0,0,0.07407407407407407,0,0)" xlink:href="#bu"/><use transform="matrix(0.07407407407407407,0,0,0.07407407407407407,17.25925925925926,0)" xlink:href="#aI"/><use transform="matrix(0.07407407407407407,0,0,0.07407407407407407,24.666666666666664,0)" xlink:href="#as"/><use transform="matrix(0.07407407407407407,0,0,0.07407407407407407,35.03703703703704,0)" xlink:href="#aA"/><use transform="matrix(0.07407407407407407,0,0,0.07407407407407407,43.851851851851855,0)" xlink:href="#bl"/><use transform="matrix(0.07407407407407407,0,0,0.07407407407407407,60.074074074074076,0)" xlink:href="#aw"/><use transform="matrix(0.07407407407407407,0,0,0.07407407407407407,74.88888888888889,0)" xlink:href="#bh"/></g><path fill="#3a414a" d="M114-157C55-157 80-60 75 0H25v-261h50l-1 109c12-26 28-41 61-42 86-1 58 113 63 194h-50c-7-57 23-157-34-157" id="bv"/><g id="M"><use transform="matrix(0.07407407407407407,0,0,0.07407407407407407,0,0)" xlink:href="#bv"/><use transform="matrix(0.07407407407407407,0,0,0.07407407407407407,16.22222222222222,0)" xlink:href="#aw"/><use transform="matrix(0.07407407407407407,0,0,0.07407407407407407,31.037037037037035,0)" xlink:href="#at"/><use transform="matrix(0.07407407407407407,0,0,0.07407407407407407,47.259259259259245,0)" xlink:href="#aF"/></g><path fill="#3a414a" d="M14 0l48-248h34L48 0H14" id="bw"/><path fill="#3a414a" d="M89 0H52L20-190h33L74-25l89-165h34" id="bx"/><path fill="#3a414a" d="M68-162c25-46 127-43 121 31C183-60 169 1 98 4 69 5 53-11 43-31L36 0H5l52-261h31zm88 36c2-27-9-43-34-43-55 0-70 51-70 103 0 29 15 45 43 46 52 0 58-58 61-106" id="by"/><g id="N"><use transform="matrix(0.061728395061728385,0,0,0.061728395061728385,0,0)" xlink:href="#bw"/><use transform="matrix(0.061728395061728385,0,0,0.061728395061728385,6.1728395061728385,0)" xlink:href="#aL"/><use transform="matrix(0.061728395061728385,0,0,0.061728395061728385,18.518518518518515,0)" xlink:href="#bx"/><use transform="matrix(0.061728395061728385,0,0,0.061728395061728385,29.629629629629626,0)" xlink:href="#aT"/><use transform="matrix(0.061728395061728385,0,0,0.061728395061728385,34.50617283950617,0)" xlink:href="#aQ"/><use transform="matrix(0.061728395061728385,0,0,0.061728395061728385,45.61728395061728,0)" xlink:href="#aT"/><use transform="matrix(0.061728395061728385,0,0,0.061728395061728385,50.49382716049382,0)" xlink:href="#by"/><use transform="matrix(0.061728395061728385,0,0,0.061728395061728385,62.8395061728395,0)" xlink:href="#aV"/><use transform="matrix(0.061728395061728385,0,0,0.061728395061728385,67.71604938271604,0)" xlink:href="#aR"/></g><path fill="#3a414a" d="M119 0H84L31-248h34l41 218 126-218h36" id="bz"/><g id="O"><use transform="matrix(0.061728395061728385,0,0,0.061728395061728385,0,0)" xlink:href="#bz"/><use transform="matrix(0.061728395061728385,0,0,0.061728395061728385,14.382716049382715,0)" xlink:href="#aT"/><use transform="matrix(0.061728395061728385,0,0,0.061728395061728385,19.25925925925926,0)" xlink:href="#aQ"/><use transform="matrix(0.061728395061728385,0,0,0.061728395061728385,30.370370370370367,0)" xlink:href="#aT"/><use transform="matrix(0.061728395061728385,0,0,0.061728395061728385,35.24691358024691,0)" xlink:href="#by"/><use transform="matrix(0.061728395061728385,0,0,0.061728395061728385,47.59259259259259,0)" xlink:href="#aV"/><use transform="matrix(0.061728395061728385,0,0,0.061728395061728385,52.46913580246913,0)" xlink:href="#aR"/></g><g id="P"><use transform="matrix(0.07407407407407407,0,0,0.07407407407407407,0,0)" xlink:href="#an"/><use transform="matrix(0.07407407407407407,0,0,0.07407407407407407,19.185185185185183,0)" xlink:href="#aw"/><use transform="matrix(0.07407407407407407,0,0,0.07407407407407407,34,0)" xlink:href="#at"/><use transform="matrix(0.07407407407407407,0,0,0.07407407407407407,50.22222222222222,0)" xlink:href="#aF"/><use transform="matrix(0.07407407407407407,0,0,0.07407407407407407,66.44444444444444,0)" xlink:href="#bv"/><use transform="matrix(0.07407407407407407,0,0,0.07407407407407407,82.66666666666666,0)" xlink:href="#aq"/><use transform="matrix(0.07407407407407407,0,0,0.07407407407407407,97.48148148148145,0)" xlink:href="#bh"/><use transform="matrix(0.07407407407407407,0,0,0.07407407407407407,104.88888888888887,0)" xlink:href="#aF"/></g><g id="Q"><use transform="matrix(0.07407407407407407,0,0,0.07407407407407407,0,0)" xlink:href="#aE"/><use transform="matrix(0.07407407407407407,0,0,0.07407407407407407,16.22222222222222,0)" xlink:href="#bc"/><use transform="matrix(0.07407407407407407,0,0,0.07407407407407407,32.44444444444444,0)" xlink:href="#bd"/><use transform="matrix(0.07407407407407407,0,0,0.07407407407407407,39.85185185185185,0)" xlink:href="#aq"/><use transform="matrix(0.07407407407407407,0,0,0.07407407407407407,54.66666666666666,0)" xlink:href="#au"/><use transform="matrix(0.07407407407407407,0,0,0.07407407407407407,69.48148148148147,0)" xlink:href="#aA"/></g><path fill="#3a414a" d="M123-251c66 0 92 69 53 113C138-94 73-75 39-27h128l-5 27H-2c17-92 123-93 159-163 14-28-1-64-36-62-29 2-46 17-54 41l-30-6c13-36 37-61 86-61" id="bA"/><path fill="#3a414a" d="M248-139C247-14 144 9 11 0l48-248c105-6 190 8 189 109zm-34 0c1-70-52-87-126-82L50-27c98 7 163-21 164-112" id="bB"/><g id="R"><use transform="matrix(0.061728395061728385,0,0,0.061728395061728385,0,0)" xlink:href="#bA"/><use transform="matrix(0.061728395061728385,0,0,0.061728395061728385,12.345679012345677,0)" xlink:href="#bB"/></g><path fill="#3a414a" d="M125-24c46 0 70-25 89-51l25 16C214-24 183 4 123 4 8 4-5-146 60-208c32-50 158-61 191-5 5 7 9 14 11 22l-32 10c-9-28-33-43-69-43-74 0-108 51-108 125 0 46 24 75 72 75" id="bC"/><path fill="#3a414a" d="M67 3c-93-2-31-127-26-193h32L48-50c-3 39 53 32 70 12 30-34 30-101 43-152h32L157 0h-30c1-10 6-24 4-33-14 20-29 37-64 36" id="bD"/><g id="S"><use transform="matrix(0.061728395061728385,0,0,0.061728395061728385,0,0)" xlink:href="#bC"/><use transform="matrix(0.061728395061728385,0,0,0.061728395061728385,15.987654320987652,0)" xlink:href="#bD"/><use transform="matrix(0.061728395061728385,0,0,0.061728395061728385,28.33333333333333,0)" xlink:href="#aP"/><use transform="matrix(0.061728395061728385,0,0,0.061728395061728385,35.679012345679006,0)" xlink:href="#aQ"/><use transform="matrix(0.061728395061728385,0,0,0.061728395061728385,46.79012345679011,0)" xlink:href="#aO"/><use transform="matrix(0.061728395061728385,0,0,0.061728395061728385,59.13580246913579,0)" xlink:href="#aP"/></g><g id="T"><use transform="matrix(0.07407407407407407,0,0,0.07407407407407407,0,0)" xlink:href="#bk"/><use transform="matrix(0.07407407407407407,0,0,0.07407407407407407,19.185185185185183,0)" xlink:href="#aE"/><use transform="matrix(0.07407407407407407,0,0,0.07407407407407407,35.407407407407405,0)" xlink:href="#at"/><use transform="matrix(0.07407407407407407,0,0,0.07407407407407407,51.629629629629626,0)" xlink:href="#ar"/><use transform="matrix(0.07407407407407407,0,0,0.07407407407407407,60.44444444444444,0)" xlink:href="#aI"/><use transform="matrix(0.07407407407407407,0,0,0.07407407407407407,67.85185185185185,0)" xlink:href="#as"/><use transform="matrix(0.07407407407407407,0,0,0.07407407407407407,78.22222222222221,0)" xlink:href="#ax"/><use transform="matrix(0.07407407407407407,0,0,0.07407407407407407,101.92592592592592,0)" xlink:href="#aw"/><use transform="matrix(0.07407407407407407,0,0,0.07407407407407407,116.74074074074073,0)" xlink:href="#aA"/><use transform="matrix(0.07407407407407407,0,0,0.07407407407407407,125.55555555555554,0)" xlink:href="#aI"/><use transform="matrix(0.07407407407407407,0,0,0.07407407407407407,132.96296296296296,0)" xlink:href="#aE"/><use transform="matrix(0.07407407407407407,0,0,0.07407407407407407,149.1851851851852,0)" xlink:href="#at"/></g><g id="U"><use transform="matrix(0.07407407407407407,0,0,0.07407407407407407,0,0)" xlink:href="#be"/><use transform="matrix(0.07407407407407407,0,0,0.07407407407407407,19.185185185185183,0)" xlink:href="#at"/><use transform="matrix(0.07407407407407407,0,0,0.07407407407407407,35.407407407407405,0)" xlink:href="#aw"/><use transform="matrix(0.07407407407407407,0,0,0.07407407407407407,50.222222222222214,0)" xlink:href="#bh"/><use transform="matrix(0.07407407407407407,0,0,0.07407407407407407,57.62962962962962,0)" xlink:href="#aE"/><use transform="matrix(0.07407407407407407,0,0,0.07407407407407407,73.85185185185185,0)" xlink:href="#az"/></g><g id="V"><use transform="matrix(0.061728395061728385,0,0,0.061728395061728385,0,0)" xlink:href="#bC"/><use transform="matrix(0.061728395061728385,0,0,0.061728395061728385,15.987654320987652,0)" xlink:href="#aO"/><use transform="matrix(0.061728395061728385,0,0,0.061728395061728385,28.33333333333333,0)" xlink:href="#aL"/><use transform="matrix(0.061728395061728385,0,0,0.061728395061728385,40.679012345679006,0)" xlink:href="#aY"/><use transform="matrix(0.061728395061728385,0,0,0.061728395061728385,46.85185185185185,0)" xlink:href="#aT"/><use transform="matrix(0.061728395061728385,0,0,0.061728395061728385,51.72839506172839,0)" xlink:href="#aL"/><use transform="matrix(0.061728395061728385,0,0,0.061728395061728385,64.07407407407408,0)" xlink:href="#bD"/><use transform="matrix(0.061728395061728385,0,0,0.061728395061728385,76.41975308641975,0)" xlink:href="#aR"/><use transform="matrix(0.061728395061728385,0,0,0.061728395061728385,88.76543209876542,0)" xlink:href="#aM"/></g><g id="W"><use transform="matrix(0.061728395061728385,0,0,0.061728395061728385,0,0)" xlink:href="#aU"/><use transform="matrix(0.061728395061728385,0,0,0.061728395061728385,12.345679012345677,0)" xlink:href="#aP"/><use transform="matrix(0.061728395061728385,0,0,0.061728395061728385,19.691358024691354,0)" xlink:href="#aR"/><use transform="matrix(0.061728395061728385,0,0,0.061728395061728385,32.03703703703703,0)" xlink:href="#aQ"/><use transform="matrix(0.061728395061728385,0,0,0.061728395061728385,43.14814814814814,0)" xlink:href="#aQ"/></g><path fill="#3a414a" d="M44-68c0 29 11 47 38 47 30 0 42-19 51-41l28 9C148-21 126 4 82 4 31 4 10-29 12-85c3-77 74-140 146-93 12 8 15 23 18 40l-31 5c-1-22-13-36-36-36-52 0-65 49-65 101" id="bE"/><path fill="#3a414a" d="M127 0L80-88 50-66 37 0H6l51-261h31L57-100l99-90h39l-93 82L161 0h-34" id="bF"/><g id="X"><use transform="matrix(0.061728395061728385,0,0,0.061728395061728385,0,0)" xlink:href="#bC"/><use transform="matrix(0.061728395061728385,0,0,0.061728395061728385,15.987654320987652,0)" xlink:href="#aV"/><use transform="matrix(0.061728395061728385,0,0,0.061728395061728385,20.864197530864196,0)" xlink:href="#aT"/><use transform="matrix(0.061728395061728385,0,0,0.061728395061728385,25.74074074074074,0)" xlink:href="#bE"/><use transform="matrix(0.061728395061728385,0,0,0.061728395061728385,36.85185185185185,0)" xlink:href="#bF"/></g><path fill="#3a414a" d="M249-183c0 48-29 72-75 77L221 0h-36l-43-103H65L45 0H11l48-248c83 2 190-17 190 65zm-34 3c0-55-74-39-127-41l-18 92c63-1 145 13 145-51" id="bG"/><g id="Y"><use transform="matrix(0.061728395061728385,0,0,0.061728395061728385,0,0)" xlink:href="#bG"/><use transform="matrix(0.061728395061728385,0,0,0.061728395061728385,15.987654320987652,0)" xlink:href="#aR"/><use transform="matrix(0.061728395061728385,0,0,0.061728395061728385,28.33333333333333,0)" xlink:href="#aV"/><use transform="matrix(0.061728395061728385,0,0,0.061728395061728385,33.20987654320987,0)" xlink:href="#aR"/><use transform="matrix(0.061728395061728385,0,0,0.061728395061728385,45.55555555555555,0)" xlink:href="#aK"/><use transform="matrix(0.061728395061728385,0,0,0.061728395061728385,57.90123456790123,0)" xlink:href="#aQ"/><use transform="matrix(0.061728395061728385,0,0,0.061728395061728385,69.01234567901234,0)" xlink:href="#aR"/></g><path fill="#3a414a" d="M147 0L96-86 75-71V0H25v-261h50v150l67-79h53l-66 74L201 0h-54" id="bH"/><g id="Z"><use transform="matrix(0.07407407407407407,0,0,0.07407407407407407,0,0)" xlink:href="#ay"/><use transform="matrix(0.07407407407407407,0,0,0.07407407407407407,14.74074074074074,0)" xlink:href="#as"/><use transform="matrix(0.07407407407407407,0,0,0.07407407407407407,25.11111111111111,0)" xlink:href="#aw"/><use transform="matrix(0.07407407407407407,0,0,0.07407407407407407,39.925925925925924,0)" xlink:href="#au"/><use transform="matrix(0.07407407407407407,0,0,0.07407407407407407,54.740740740740726,0)" xlink:href="#bH"/><use transform="matrix(0.07407407407407407,0,0,0.07407407407407407,69.55555555555554,0)" xlink:href="#aq"/><use transform="matrix(0.07407407407407407,0,0,0.07407407407407407,84.37037037037035,0)" xlink:href="#aF"/></g><g id="aa"><use transform="matrix(0.061728395061728385,0,0,0.061728395061728385,0,0)" xlink:href="#aJ"/><use transform="matrix(0.061728395061728385,0,0,0.061728395061728385,15.987654320987652,0)" xlink:href="#aO"/><use transform="matrix(0.061728395061728385,0,0,0.061728395061728385,28.33333333333333,0)" xlink:href="#aV"/><use transform="matrix(0.061728395061728385,0,0,0.061728395061728385,33.20987654320987,0)" xlink:href="#aM"/></g><g id="ab"><use transform="matrix(0.061728395061728385,0,0,0.061728395061728385,0,0)" xlink:href="#bn"/><use transform="matrix(0.061728395061728385,0,0,0.061728395061728385,12.345679012345677,0)" xlink:href="#aR"/><use transform="matrix(0.061728395061728385,0,0,0.061728395061728385,24.691358024691354,0)" xlink:href="#aQ"/><use transform="matrix(0.061728395061728385,0,0,0.061728395061728385,35.80246913580246,0)" xlink:href="#aY"/><use transform="matrix(0.061728395061728385,0,0,0.061728395061728385,41.9753086419753,0)" xlink:href="#bD"/><use transform="matrix(0.061728395061728385,0,0,0.061728395061728385,54.32098765432098,0)" xlink:href="#aP"/><use transform="matrix(0.061728395061728385,0,0,0.061728395061728385,61.66666666666666,0)" xlink:href="#aR"/></g><g id="ac"><use transform="matrix(0.061728395061728385,0,0,0.061728395061728385,0,0)" xlink:href="#bC"/><use transform="matrix(0.061728395061728385,0,0,0.061728395061728385,15.987654320987652,0)" xlink:href="#aV"/><use transform="matrix(0.061728395061728385,0,0,0.061728395061728385,20.864197530864196,0)" xlink:href="#aT"/><use transform="matrix(0.061728395061728385,0,0,0.061728395061728385,25.74074074074074,0)" xlink:href="#bE"/><use transform="matrix(0.061728395061728385,0,0,0.061728395061728385,36.85185185185185,0)" xlink:href="#bF"/></g><g id="ad"><use transform="matrix(0.061728395061728385,0,0,0.061728395061728385,0,0)" xlink:href="#bG"/><use transform="matrix(0.061728395061728385,0,0,0.061728395061728385,15.987654320987652,0)" xlink:href="#aR"/><use transform="matrix(0.061728395061728385,0,0,0.061728395061728385,28.33333333333333,0)" xlink:href="#aV"/><use transform="matrix(0.061728395061728385,0,0,0.061728395061728385,33.20987654320987,0)" xlink:href="#aR"/><use transform="matrix(0.061728395061728385,0,0,0.061728395061728385,45.55555555555555,0)" xlink:href="#aK"/><use transform="matrix(0.061728395061728385,0,0,0.061728395061728385,57.90123456790123,0)" xlink:href="#aQ"/><use transform="matrix(0.061728395061728385,0,0,0.061728395061728385,69.01234567901234,0)" xlink:href="#aR"/></g><g id="ae"><use transform="matrix(0.07407407407407407,0,0,0.07407407407407407,0,0)" xlink:href="#bm"/><use transform="matrix(0.07407407407407407,0,0,0.07407407407407407,17.77777777777778,0)" xlink:href="#as"/><use transform="matrix(0.07407407407407407,0,0,0.07407407407407407,28.148148148148152,0)" xlink:href="#aq"/><use transform="matrix(0.07407407407407407,0,0,0.07407407407407407,42.96296296296296,0)" xlink:href="#bj"/><use transform="matrix(0.07407407407407407,0,0,0.07407407407407407,57.77777777777777,0)" xlink:href="#bj"/><use transform="matrix(0.07407407407407407,0,0,0.07407407407407407,72.59259259259258,0)" xlink:href="#aG"/><use transform="matrix(0.07407407407407407,0,0,0.07407407407407407,81.40740740740739,0)" xlink:href="#aI"/><use transform="matrix(0.07407407407407407,0,0,0.07407407407407407,88.8148148148148,0)" xlink:href="#at"/></g><g id="af"><use transform="matrix(0.07407407407407407,0,0,0.07407407407407407,0,0)" xlink:href="#ax"/><use transform="matrix(0.07407407407407407,0,0,0.07407407407407407,23.703703703703702,0)" xlink:href="#aE"/><use transform="matrix(0.07407407407407407,0,0,0.07407407407407407,39.925925925925924,0)" xlink:href="#aA"/><use transform="matrix(0.07407407407407407,0,0,0.07407407407407407,48.74074074074074,0)" xlink:href="#aI"/><use transform="matrix(0.07407407407407407,0,0,0.07407407407407407,56.148148148148145,0)" xlink:href="#aE"/><use transform="matrix(0.07407407407407407,0,0,0.07407407407407407,72.37037037037037,0)" xlink:href="#at"/></g><path fill="#3a414a" d="M231 0h-52l-39-155L100 0H48L-1-190h46L77-45c9-52 24-97 36-145h53l37 145 32-145h46" id="bI"/><g id="ag"><use transform="matrix(0.07407407407407407,0,0,0.07407407407407407,0,0)" xlink:href="#ba"/><use transform="matrix(0.07407407407407407,0,0,0.07407407407407407,19.185185185185183,0)" xlink:href="#bI"/><use transform="matrix(0.07407407407407407,0,0,0.07407407407407407,39.925925925925924,0)" xlink:href="#aq"/><use transform="matrix(0.07407407407407407,0,0,0.07407407407407407,54.740740740740726,0)" xlink:href="#bh"/><use transform="matrix(0.07407407407407407,0,0,0.07407407407407407,62.14814814814814,0)" xlink:href="#bh"/></g><g id="ah"><use transform="matrix(0.07407407407407407,0,0,0.07407407407407407,0,0)" xlink:href="#be"/><use transform="matrix(0.07407407407407407,0,0,0.07407407407407407,19.185185185185183,0)" xlink:href="#bl"/><use transform="matrix(0.07407407407407407,0,0,0.07407407407407407,35.407407407407405,0)" xlink:href="#aA"/><use transform="matrix(0.07407407407407407,0,0,0.07407407407407407,44.22222222222222,0)" xlink:href="#aE"/><use transform="matrix(0.07407407407407407,0,0,0.07407407407407407,60.44444444444444,0)" xlink:href="#ax"/><use transform="matrix(0.07407407407407407,0,0,0.07407407407407407,84.14814814814817,0)" xlink:href="#aw"/><use transform="matrix(0.07407407407407407,0,0,0.07407407407407407,98.96296296296296,0)" xlink:href="#aA"/><use transform="matrix(0.07407407407407407,0,0,0.07407407407407407,107.77777777777777,0)" xlink:href="#aI"/><use transform="matrix(0.07407407407407407,0,0,0.07407407407407407,115.18518518518518,0)" xlink:href="#au"/></g><g id="ai"><use transform="matrix(0.07407407407407407,0,0,0.07407407407407407,0,0)" xlink:href="#bb"/><use transform="matrix(0.07407407407407407,0,0,0.07407407407407407,20.74074074074074,0)" xlink:href="#bl"/><use transform="matrix(0.07407407407407407,0,0,0.07407407407407407,36.96296296296296,0)" xlink:href="#aA"/><use transform="matrix(0.07407407407407407,0,0,0.07407407407407407,45.77777777777778,0)" xlink:href="#au"/><use transform="matrix(0.07407407407407407,0,0,0.07407407407407407,60.592592592592595,0)" xlink:href="#aE"/><use transform="matrix(0.07407407407407407,0,0,0.07407407407407407,76.81481481481481,0)" xlink:href="#ax"/><use transform="matrix(0.07407407407407407,0,0,0.07407407407407407,100.51851851851852,0)" xlink:href="#aq"/></g><path fill="#3a414a" d="M84 4C32 4 15-41 15-95c0-55 18-99 73-99 29 0 47 12 58 34l2-30h48l-1 265h-49V-32C136-9 114 4 84 4zm21-34c32 0 41-29 41-66 0-36-9-64-40-64-33 0-39 30-40 65 0 43 13 65 39 65" id="bJ"/><g id="aj"><use transform="matrix(0.07407407407407407,0,0,0.07407407407407407,0,0)" xlink:href="#be"/><use transform="matrix(0.07407407407407407,0,0,0.07407407407407407,19.185185185185183,0)" xlink:href="#au"/><use transform="matrix(0.07407407407407407,0,0,0.07407407407407407,34,0)" xlink:href="#bJ"/><use transform="matrix(0.07407407407407407,0,0,0.07407407407407407,50.22222222222222,0)" xlink:href="#bl"/><use transform="matrix(0.07407407407407407,0,0,0.07407407407407407,66.44444444444444,0)" xlink:href="#aI"/><use transform="matrix(0.07407407407407407,0,0,0.07407407407407407,73.85185185185185,0)" xlink:href="#bj"/><use transform="matrix(0.07407407407407407,0,0,0.07407407407407407,88.66666666666666,0)" xlink:href="#aI"/><use transform="matrix(0.07407407407407407,0,0,0.07407407407407407,96.07407407407406,0)" xlink:href="#aA"/><use transform="matrix(0.07407407407407407,0,0,0.07407407407407407,104.88888888888887,0)" xlink:href="#aI"/><use transform="matrix(0.07407407407407407,0,0,0.07407407407407407,112.29629629629628,0)" xlink:href="#aE"/><use transform="matrix(0.07407407407407407,0,0,0.07407407407407407,128.5185185185185,0)" xlink:href="#at"/></g><g id="ak"><use transform="matrix(0.07407407407407407,0,0,0.07407407407407407,0,0)" xlink:href="#bi"/><use transform="matrix(0.07407407407407407,0,0,0.07407407407407407,17.77777777777778,0)" xlink:href="#aB"/><use transform="matrix(0.07407407407407407,0,0,0.07407407407407407,32.592592592592595,0)" xlink:href="#bj"/><use transform="matrix(0.07407407407407407,0,0,0.07407407407407407,47.407407407407405,0)" xlink:href="#aA"/><use transform="matrix(0.07407407407407407,0,0,0.07407407407407407,56.22222222222222,0)" xlink:href="#aq"/><use transform="matrix(0.07407407407407407,0,0,0.07407407407407407,71.03703703703704,0)" xlink:href="#ax"/></g><g id="al"><use transform="matrix(0.07407407407407407,0,0,0.07407407407407407,0,0)" xlink:href="#au"/><use transform="matrix(0.07407407407407407,0,0,0.07407407407407407,14.814814814814813,0)" xlink:href="#aE"/><use transform="matrix(0.07407407407407407,0,0,0.07407407407407407,31.037037037037035,0)" xlink:href="#at"/><use transform="matrix(0.07407407407407407,0,0,0.07407407407407407,47.259259259259245,0)" xlink:href="#aA"/><use transform="matrix(0.07407407407407407,0,0,0.07407407407407407,56.07407407407407,0)" xlink:href="#as"/><use transform="matrix(0.07407407407407407,0,0,0.07407407407407407,66.44444444444444,0)" xlink:href="#aE"/><use transform="matrix(0.07407407407407407,0,0,0.07407407407407407,82.66666666666666,0)" xlink:href="#bh"/></g></defs></g></svg>